<svg width="62" height="62" viewBox="0 0 62 62" fill="none" xmlns="http://www.w3.org/2000/svg">
<path d="M56.4813 0H19.4132C17.95 0.00140393 16.5473 0.475522 15.5127 1.31835C14.4782 2.16118 13.8962 3.30389 13.8944 4.49583V10.477H5.51871C4.05666 10.4775 2.65456 10.9505 1.61998 11.792C0.585394 12.6336 0.00280195 13.7751 0 14.9662V57.5108C0.00280195 58.7019 0.585394 59.8434 1.61998 60.685C2.65456 61.5266 4.05666 61.9995 5.51871 62H42.595C44.057 61.9995 45.4591 61.5266 46.4937 60.685C47.5283 59.8434 48.1109 58.7019 48.1137 57.5108V51.5296H56.4813C57.9444 51.5282 59.3471 51.0541 60.3817 50.2113C61.4163 49.3685 61.9983 48.2257 62 47.0338V4.49583C61.9983 3.30389 61.4163 2.16118 60.3817 1.31835C59.3471 0.475522 57.9444 0.00140393 56.4813 0ZM45.2648 57.5108C45.2629 58.0865 44.9807 58.6382 44.4802 59.0447C43.9797 59.4511 43.3017 59.6793 42.595 59.6791H5.51871C4.81197 59.6793 4.134 59.4511 3.6335 59.0447C3.133 58.6382 2.85083 58.0865 2.84889 57.5108V14.9662C2.85083 14.3905 3.133 13.8388 3.6335 13.4324C4.134 13.0259 4.81197 12.7977 5.51871 12.7979H13.8944V47.0338C13.8962 48.2257 14.4782 49.3685 15.5127 50.2113C16.5473 51.0541 17.95 51.5282 19.4132 51.5296H45.2648V57.5108ZM59.1511 47.0338C59.1502 47.6104 58.8687 48.1632 58.3682 48.571C57.8677 48.9787 57.1891 49.2081 56.4813 49.2088H19.4132C18.7053 49.2082 18.0266 48.9789 17.526 48.5712C17.0255 48.1634 16.744 47.6105 16.7433 47.0338V4.49583C16.744 3.91915 17.0255 3.36624 17.526 2.95847C18.0266 2.5507 18.7053 2.32138 19.4132 2.32086H56.4813C57.1891 2.32156 57.8677 2.55093 58.3682 2.95867C58.8687 3.3664 59.1502 3.91921 59.1511 4.49583V47.0338Z" fill="white"/>
<path d="M51.1741 9.04062H24.7202C24.3424 9.04062 23.9801 9.16288 23.713 9.38049C23.4458 9.59811 23.2958 9.89327 23.2958 10.201C23.2958 10.5088 23.4458 10.8039 23.713 11.0216C23.9801 11.2392 24.3424 11.3614 24.7202 11.3614H51.1741C51.5519 11.3614 51.9142 11.2392 52.1814 11.0216C52.4485 10.8039 52.5986 10.5088 52.5986 10.201C52.5986 9.89327 52.4485 9.59811 52.1814 9.38049C51.9142 9.16288 51.5519 9.04062 51.1741 9.04062Z" fill="white"/>
<path d="M51.1741 16.8221H24.7202C24.3424 16.8221 23.9801 16.9443 23.713 17.162C23.4458 17.3796 23.2958 17.6747 23.2958 17.9825C23.2958 18.2903 23.4458 18.5854 23.713 18.8031C23.9801 19.0207 24.3424 19.1429 24.7202 19.1429H51.1741C51.5519 19.1429 51.9142 19.0207 52.1814 18.8031C52.4485 18.5854 52.5986 18.2903 52.5986 17.9825C52.5986 17.6747 52.4485 17.3796 52.1814 17.162C51.9142 16.9443 51.5519 16.8221 51.1741 16.8221Z" fill="white"/>
<path d="M51.1741 24.6043H24.7202C24.3424 24.6043 23.9801 24.7266 23.713 24.9442C23.4458 25.1618 23.2958 25.457 23.2958 25.7648C23.2958 26.0725 23.4458 26.3677 23.713 26.5853C23.9801 26.8029 24.3424 26.9252 24.7202 26.9252H51.1741C51.5519 26.9252 51.9142 26.8029 52.1814 26.5853C52.4485 26.3677 52.5986 26.0725 52.5986 25.7648C52.5986 25.457 52.4485 25.1618 52.1814 24.9442C51.9142 24.7266 51.5519 24.6043 51.1741 24.6043Z" fill="white"/>
<path d="M51.1741 32.3866H24.7202C24.3424 32.3866 23.9801 32.5089 23.713 32.7265C23.4458 32.9441 23.2958 33.2393 23.2958 33.547C23.2958 33.8548 23.4458 34.1499 23.713 34.3676C23.9801 34.5852 24.3424 34.7075 24.7202 34.7075H51.1741C51.5519 34.7075 51.9142 34.5852 52.1814 34.3676C52.4485 34.1499 52.5986 33.8548 52.5986 33.547C52.5986 33.2393 52.4485 32.9441 52.1814 32.7265C51.9142 32.5089 51.5519 32.3866 51.1741 32.3866Z" fill="white"/>
<path d="M51.1741 40.1681H24.7202C24.3424 40.1681 23.9801 40.2903 23.713 40.5079C23.4458 40.7256 23.2958 41.0207 23.2958 41.3285C23.2958 41.6363 23.4458 41.9314 23.713 42.149C23.9801 42.3667 24.3424 42.4889 24.7202 42.4889H51.1741C51.5519 42.4889 51.9142 42.3667 52.1814 42.149C52.4485 41.9314 52.5986 41.6363 52.5986 41.3285C52.5986 41.0207 52.4485 40.7256 52.1814 40.5079C51.9142 40.2903 51.5519 40.1681 51.1741 40.1681Z" fill="white"/>
</svg>
