<svg width="104" height="108" viewBox="0 0 104 108" fill="none" xmlns="http://www.w3.org/2000/svg">
<path d="M3.69067 108C2.52566 108 1.5813 107.056 1.5813 105.891V81.9456C1.5813 76.309 5.18811 71.3013 10.5428 69.5037L14.7147 68.1031L18.8636 67.7004L21.483 65.8309L29.5843 63.1113C31.3692 62.512 32.5713 60.8429 32.5713 58.964V51.8384H52.0883V58.964C52.0883 60.8429 52.8964 64.302 54.6811 64.9013L63.1766 65.8309L74.1169 69.5035C79.4715 71.3011 83.0783 76.3088 83.0783 81.9454V105.891C83.0783 107.056 82.134 108 80.969 108H69.945L42.3297 104.836L14.7147 108H3.69067Z" fill="#F8F5F9"/>
<path d="M49.6855 66.5902L67.7886 72.6675C73.1432 74.4652 76.75 79.4728 76.75 85.1095V108H80.9688C82.1338 108 83.0782 107.056 83.0782 105.891V81.9454C83.0782 76.3087 79.4713 71.3011 74.1167 69.5035L55.0752 63.1113C54.6166 62.9573 54.1967 62.733 53.8246 62.4514L49.6855 66.5902Z" fill="#DBD9EC"/>
<path d="M29.584 63.1113C31.3689 62.512 32.5711 60.8429 32.5711 58.964V51.8384H48.924V58.964C48.924 60.8429 53.2904 62.5122 55.0751 63.1113L42.3294 72.2107L29.584 63.1113Z" fill="#F1CCBD"/>
<path d="M52.0882 58.964V51.8384H45.7601V62.1281C45.7601 64.0069 46.9625 65.6763 48.7472 66.2753L50.0369 66.7082L55.0753 63.1113C53.9932 62.7478 53.0767 61.9541 52.5626 60.9439C52.2572 60.3436 52.0882 59.6686 52.0882 58.964Z" fill="#EAAD9C"/>
<path d="M33.0724 69.1796C33.3815 69.4884 33.7865 69.6429 34.1913 69.6429C34.596 69.6429 35.001 69.4884 35.3101 69.1796C35.9279 68.5616 35.9279 67.5601 35.3101 66.9422L30.8255 62.4577C30.4564 62.7355 30.0394 62.9587 29.5842 63.1116L27.6528 63.7598L33.0724 69.1796Z" fill="#E2DFE3"/>
<path d="M50.5239 69.5713C50.9287 69.5713 51.3337 69.4169 51.6427 69.1081L56.9952 63.7556L55.0755 63.1112C54.6165 62.9572 54.197 62.7313 53.8257 62.4503L49.4055 66.8705C48.7877 67.4885 48.7877 68.49 49.4055 69.1079C49.7143 69.4169 50.1191 69.5713 50.5239 69.5713Z" fill="#E2DFE3"/>
<path d="M14.7146 108V93.531C14.7146 92.691 14.9667 91.8728 15.4341 91.175C16.6879 89.3034 18.484 85.9372 18.7756 81.4253C19.2303 74.3878 15.7109 69.4177 14.7146 68.1034C16.9708 67.3459 19.2268 66.5886 21.4829 65.8311L22.036 67.5906C25.8126 79.6062 32.8356 90.345 42.3299 98.6213C51.8241 90.345 58.8471 79.6064 62.6237 67.5906L63.1768 65.8311C65.433 66.5886 67.6889 67.3459 69.9451 68.1034C68.9489 69.4177 65.4294 74.3878 65.8842 81.4253C66.1757 85.9372 67.9718 89.3034 69.2256 91.175C69.693 91.8728 69.9451 92.691 69.9451 93.531V108H14.7146Z" fill="#4F6D8F"/>
<path d="M22.0966 23.6153L62.563 26.7793V10.9156C62.563 5.7607 58.3747 1.58203 53.208 1.58203H31.4515C26.2848 1.58203 22.0964 5.7607 22.0964 10.9156V23.6153H22.0966Z" fill="#C6855B"/>
<path d="M53.208 1.58203H46.8799C52.0466 1.58203 56.2349 5.76091 56.2349 10.9156V26.2847L62.5631 26.7795V10.9156C62.5631 5.76091 58.3747 1.58203 53.208 1.58203Z" fill="#C17E4E"/>
<path d="M63.9582 35.6981H62.5631V27.8865H63.9582C66.1153 27.8865 67.8642 29.6351 67.8642 31.7924C67.864 33.9492 66.1153 35.6981 63.9582 35.6981Z" fill="#F1CCBD"/>
<path d="M42.5324 58.133C46.0245 58.133 49.1075 58.3576 51.9744 56.8037C58.2816 53.3852 62.5632 46.7181 62.5632 39.0533V23.6152C59.0806 24.0354 53.4775 24.2658 46.9534 22.5133C42.186 21.2327 38.4512 19.3026 35.8381 17.6672C35.5189 17.4675 35.1066 17.5019 34.8283 17.7554C33.6102 18.8656 31.8938 20.1917 29.6382 21.3257C26.6562 22.8249 23.9282 23.3864 22.0968 23.6155V39.0535C22.0968 46.6719 26.3267 53.3047 32.5713 56.7415C35.4652 58.3338 42.5324 58.133 42.5324 58.133Z" fill="#F1CCBD"/>
<path d="M56.2349 23.8908V39.0534C56.2777 40.4226 56.3416 47.0456 51.327 52.2334C46.6617 57.0598 39.4054 58.7773 32.5713 56.7409C34.5248 57.7861 37.179 58.841 40.4125 59.15C41.0792 59.2137 41.7196 59.2409 42.3299 59.2401C53.5043 59.2401 62.563 50.2022 62.563 39.0534V23.6153C60.8959 23.8163 58.7421 23.9733 56.2349 23.8908Z" fill="#EAAD9C"/>
<path d="M33.1013 39.6624C32.2274 39.6624 31.5193 38.9543 31.5193 38.0804V34.8231C31.5193 33.9492 32.2274 33.2411 33.1013 33.2411C33.9752 33.2411 34.6833 33.9492 34.6833 34.8231V38.0804C34.6833 38.9543 33.975 39.6624 33.1013 39.6624Z" fill="#455E7E"/>
<path d="M51.5585 39.6623C50.6846 39.6623 49.9764 38.9542 49.9764 38.0803V34.823C49.9764 33.9491 50.6846 33.241 51.5585 33.241C52.4324 33.241 53.1405 33.9491 53.1405 34.823V38.0803C53.1405 38.9542 52.4322 39.6623 51.5585 39.6623Z" fill="#455E7E"/>
<path d="M42.3287 50.17C42.2521 50.17 42.1749 50.1687 42.0965 50.1657C40.4933 50.1086 39.2897 49.4821 38.5624 48.9668C37.8495 48.4616 37.6807 47.4744 38.1859 46.7614C38.6911 46.0485 39.6781 45.8795 40.3913 46.3849C40.6988 46.6026 41.3441 46.9726 42.2097 47.0038C43.1811 47.038 43.9204 46.6304 44.2695 46.3841C44.9831 45.8795 45.9703 46.0493 46.4745 46.7627C46.979 47.4761 46.8094 48.4635 46.0958 48.9676C45.4493 49.4251 44.12 50.17 42.3287 50.17Z" fill="#EAAD9C"/>
<path d="M20.7015 35.6981H22.0966V27.8865H20.7015C18.5444 27.8865 16.7955 29.6351 16.7955 31.7924C16.7955 33.9492 18.5442 35.6981 20.7015 35.6981Z" fill="#EAAD9C"/>
<path d="M40.7479 97.1959V108H43.912V97.1957C43.3922 97.6781 42.8655 98.154 42.33 98.621C41.7942 98.1542 41.2677 97.6783 40.7479 97.1959Z" fill="#455E7E"/>
<path d="M42.3297 72.2106L50.7591 74.9526C51.2922 75.1259 51.8391 74.7285 51.8391 74.1681V67.1597C51.8391 66.5992 51.2922 66.2018 50.7591 66.3752L42.3297 69.1172L33.9002 66.3752C33.3671 66.2018 32.8202 66.5992 32.8202 67.1597V74.1681C32.8202 74.7285 33.3671 75.1259 33.9002 74.9526C33.9004 74.9526 42.3297 72.2106 42.3297 72.2106Z" fill="#4F6D8F"/>
<path d="M42.3297 74.2731C44.3229 74.2731 45.9387 72.6573 45.9387 70.6642C45.9387 68.671 44.3229 67.0552 42.3297 67.0552C40.3366 67.0552 38.7208 68.671 38.7208 70.6642C38.7208 72.6573 40.3366 74.2731 42.3297 74.2731Z" fill="#455E7E"/>
<path d="M42.3296 80.8944C43.2033 80.8944 43.9116 80.1861 43.9116 79.3124C43.9116 78.4386 43.2033 77.7303 42.3296 77.7303C41.4559 77.7303 40.7476 78.4386 40.7476 79.3124C40.7476 80.1861 41.4559 80.8944 42.3296 80.8944Z" fill="#E2DFE3"/>
<path d="M42.3296 87.2225C43.2033 87.2225 43.9116 86.5142 43.9116 85.6405C43.9116 84.7667 43.2033 84.0584 42.3296 84.0584C41.4559 84.0584 40.7476 84.7667 40.7476 85.6405C40.7476 86.5142 41.4559 87.2225 42.3296 87.2225Z" fill="#E2DFE3"/>
<path d="M42.3296 93.5506C43.2033 93.5506 43.9116 92.8423 43.9116 91.9686C43.9116 91.0949 43.2033 90.3866 42.3296 90.3866C41.4559 90.3866 40.7476 91.0949 40.7476 91.9686C40.7476 92.8423 41.4559 93.5506 42.3296 93.5506Z" fill="#E2DFE3"/>
<path d="M52.5709 92.3381H99.975C101.086 92.3381 101.986 91.4376 101.986 90.3271V85.7303C101.986 84.6195 101.086 83.7192 99.975 83.7192H52.5709C51.4601 83.7192 50.5598 84.6197 50.5598 85.7303V90.3271C50.5598 91.4376 51.4601 92.3381 52.5709 92.3381Z" fill="#CFCCE3"/>
<path d="M99.975 83.7189H93.6469C94.7576 83.7189 95.6579 84.6194 95.6579 85.73V90.3268C95.6579 91.4373 94.7574 92.3378 93.6469 92.3378H99.975C101.086 92.3378 101.986 91.4373 101.986 90.3268V85.73C101.986 84.6194 101.086 83.7189 99.975 83.7189Z" fill="#BAB4DC"/>
<path d="M76.273 64.9012C78.9703 64.9012 81.157 62.7146 81.157 60.0172C81.157 57.3198 78.9703 55.1331 76.273 55.1331C73.5756 55.1331 71.3889 57.3198 71.3889 60.0172C71.3889 62.7146 73.5756 64.9012 76.273 64.9012Z" fill="#DBD8EA"/>
<path d="M76.2728 62.172C88.0938 62.172 97.6766 71.7547 97.6766 83.5758V83.7194H54.8693V83.5758C54.8693 71.7547 64.4519 62.172 76.2728 62.172Z" fill="#DBD8EA"/>
<path d="M76.2728 62.172C75.1977 62.172 74.1413 62.2522 73.1088 62.4053C83.4293 63.9346 91.3485 72.83 91.3485 83.5758V83.7194H97.6766V83.5758C97.6766 71.7547 88.0937 62.172 76.2728 62.172Z" fill="#CFCCE3"/>
<path d="M71.9843 98.4196H80.5614C82.5731 98.4196 84.2041 96.7889 84.2041 94.7769V90.6694C84.2041 89.8632 83.5504 89.2095 82.7442 89.2095H69.8019C68.9957 89.2095 68.342 89.8632 68.342 90.6694V94.7769C68.3418 96.7889 69.9726 98.4196 71.9843 98.4196Z" fill="#F1CCBD"/>
<path d="M82.7439 89.2095H76.4158C77.2222 89.2095 77.8757 89.8632 77.8757 90.6694V94.7769C77.8757 96.7886 76.245 98.4196 74.233 98.4196H80.5611C82.5729 98.4196 84.2038 96.7889 84.2038 94.7769V90.6694C84.204 89.8632 83.5503 89.2095 82.7439 89.2095Z" fill="#EAAD9C"/>
<path d="M51.5583 39.6623C52.4322 39.6623 53.1403 38.9542 53.1403 38.0803V34.823C53.1403 33.9491 52.4322 33.241 51.5583 33.241C50.6844 33.241 49.9763 33.9491 49.9763 34.823V38.0803C49.9763 38.9542 50.6844 39.6623 51.5583 39.6623ZM42.3296 90.3866C41.4559 90.3866 40.7476 91.0949 40.7476 91.9686C40.7476 92.8423 41.4559 93.5506 42.3296 93.5506C43.2033 93.5506 43.9116 92.8423 43.9116 91.9686C43.9116 91.0949 43.2035 90.3866 42.3296 90.3866ZM99.9758 82.1368H99.212C98.9806 78.4254 97.858 74.8264 95.9266 71.6499C95.4727 70.9029 94.4992 70.666 93.7529 71.12C93.0064 71.5737 92.7691 72.547 93.223 73.2937C94.8529 75.9745 95.8161 79.0061 96.0426 82.1368H56.5029C57.2424 71.876 65.8269 63.7539 76.2728 63.7539C80.8235 63.7539 85.103 65.2534 88.6482 68.0909C89.3308 68.6373 90.326 68.5265 90.8719 67.8443C91.4178 67.1622 91.3073 66.1665 90.6253 65.6206C88.2382 63.7102 85.4878 62.31 82.5686 61.4776C82.6785 61.0018 82.7378 60.5128 82.7378 60.0184C82.7378 56.4523 79.8374 53.551 76.2725 53.551C72.7077 53.551 69.8075 56.4523 69.8075 60.0184C69.8075 60.5094 69.866 60.9946 69.9744 61.4673C67.7258 62.1088 65.6183 63.0867 63.7068 64.3398L55.5796 61.6107C54.438 61.2277 53.6711 60.1637 53.6711 58.9635V57.6428C59.9471 53.816 64.1449 46.915 64.1449 39.0537V37.2755C67.0845 37.1766 69.446 34.7557 69.446 31.7924C69.446 28.8292 67.0845 26.4083 64.1449 26.3093V10.9156C64.1449 4.8967 59.2385 0 53.2078 0H31.4514C25.4207 0 20.5143 4.8967 20.5143 10.9156V26.3091C17.5746 26.4081 15.2132 28.829 15.2132 31.7922C15.2132 34.7555 17.5746 37.1764 20.5143 37.2753V39.0533C20.5143 46.915 24.7123 53.816 30.9886 57.6428V58.9633C30.9886 60.1633 30.2216 61.2272 29.08 61.6105L10.0396 68.004C4.03459 70.0189 0 75.6214 0 81.9451V106.418C0 107.292 0.708116 108 1.58203 108C2.45594 108 3.16406 107.292 3.16406 106.418V81.9449C3.16406 76.9826 6.3317 72.5854 11.0464 71.0035L14.1018 69.9776C15.4906 72.0863 17.5329 76.1314 17.1966 81.3241C16.9387 85.3228 15.3809 88.4101 14.1216 90.2925C13.4749 91.2542 13.1327 92.3742 13.1327 93.5316V106.418C13.1327 107.292 13.8409 108 14.7148 108C15.5887 108 16.2968 107.292 16.2968 106.418V93.5316C16.2968 93.0056 16.4523 92.4961 16.749 92.0551C18.2264 89.8468 20.0508 86.2279 20.3542 81.528C20.7134 75.9793 18.7658 71.5539 17.1874 68.9418L20.4577 67.8439C24.2314 79.9958 31.2499 90.8795 40.7476 99.3339V106.418C40.7476 107.292 41.4557 108 42.3296 108C43.2035 108 43.9116 107.292 43.9116 106.418V99.3318C46.1296 97.3561 48.2268 95.2337 50.1737 92.9963C50.8101 93.5683 51.6488 93.9198 52.5698 93.9198H66.7597V94.777C66.7597 96.2525 67.3756 97.5861 68.3626 98.5372V106.418C68.3626 107.292 69.0707 108 69.9446 108C70.8186 108 71.5267 107.292 71.5267 106.418V99.9804C72.2181 100.047 81.1922 99.9713 81.4958 99.9163V106.418C81.4958 107.292 82.2039 108 83.0778 108C83.9517 108 84.6598 107.292 84.6598 106.418V98.0115C85.3639 97.1212 85.786 95.9979 85.786 94.7772V93.92H99.976C101.957 93.92 103.568 92.3084 103.568 90.3277V85.7314C103.568 83.7492 101.956 82.1368 99.9758 82.1368ZM76.2728 56.7147C78.0931 56.7147 79.5739 58.1965 79.5739 60.0179C79.5739 60.2905 79.5389 60.5592 79.4739 60.8197C78.4165 60.6702 77.3473 60.5896 76.2725 60.5896C75.1858 60.5896 74.117 60.6672 73.0701 60.8138C73.0062 60.5552 72.9716 60.2886 72.9716 60.0179C72.9716 58.1967 74.4526 56.7147 76.2728 56.7147ZM64.1449 29.4757C65.3392 29.5711 66.2819 30.5737 66.2819 31.792C66.2819 33.0104 65.3392 34.013 64.1449 34.1083V29.4757ZM20.5145 34.1085C19.3202 34.0132 18.3775 33.0106 18.3775 31.7922C18.3775 30.5739 19.3202 29.5713 20.5145 29.4759V34.1085ZM23.6785 39.0533V24.9724C26.0005 24.5489 28.2384 23.8 30.3486 22.7392C32.1917 21.8124 33.9126 20.6573 35.4718 19.3003C37.8122 20.7227 40.2922 21.9212 42.8512 22.8662C43.6714 23.1689 44.5807 22.75 44.8834 21.9303C45.1863 21.1106 44.7672 20.2008 43.9475 19.8981C41.4179 18.9637 38.9717 17.762 36.6771 16.3261C35.7591 15.7511 34.5604 15.858 33.7626 16.5856C32.3076 17.9111 30.6808 19.0303 28.9271 19.9118C27.26 20.7501 25.5008 21.3639 23.6783 21.7468V10.9152C23.6783 6.64093 27.1651 3.16364 31.4514 3.16364H53.2078C57.4939 3.16364 60.9809 6.64093 60.9809 10.9152V22.1872C57.5936 22.4764 54.1944 22.3319 50.8563 21.7544C49.9959 21.6065 49.1768 22.1828 49.0277 23.0436C48.879 23.9047 49.4561 24.7233 50.3169 24.8722C53.8339 25.4804 57.4129 25.6445 60.9809 25.3622V39.0529C60.9809 49.3116 52.614 57.6576 42.3298 57.6576C32.0454 57.6582 23.6785 49.312 23.6785 39.0533ZM47.2991 69.1654L50.2577 68.2029V73.1254L47.2991 72.1629C47.4425 71.688 47.5205 71.1852 47.5205 70.6644C47.5205 70.1436 47.4425 69.6401 47.2991 69.1654ZM45.3751 66.4642C44.5189 65.8417 43.467 65.4732 42.3298 65.4732C41.1926 65.4732 40.1407 65.8417 39.2845 66.4642L34.3895 64.8714C33.9923 64.7423 33.5732 64.7248 33.1728 64.805L31.9498 63.5819C33.2479 62.5277 34.0653 60.9568 34.1423 59.2299C36.6718 60.2557 39.4355 60.8225 42.3298 60.8225C45.2241 60.8225 47.988 60.2557 50.5175 59.2299C50.5943 60.9528 51.4081 62.5205 52.7012 63.5748L51.4737 64.8022C51.0774 64.7252 50.6633 64.7438 50.2707 64.8714L45.3751 66.4642ZM44.3565 70.6639C44.3565 71.7815 43.4471 72.6906 42.3298 72.6906C41.2121 72.6906 40.3029 71.7813 40.3029 70.6639C40.3029 69.5466 41.2123 68.6373 42.3298 68.6373C43.4473 68.6373 44.3565 69.5464 44.3565 70.6639ZM37.3601 72.1627L34.4015 73.1254V68.2025L37.3601 69.1652C37.2167 69.6401 37.1386 70.1429 37.1386 70.6639C37.1386 71.185 37.2167 71.6878 37.3601 72.1627ZM48.9775 85.7312V89.5126C46.9405 91.9901 44.7115 94.3364 42.3285 96.5033C33.5067 88.4839 26.9888 78.2438 23.4577 66.8363L28.9016 65.0083L31.2377 67.3444V74.1678C31.2377 74.9358 31.6089 75.664 32.2306 76.1152C32.8537 76.5676 33.6622 76.6934 34.3891 76.4567L39.2843 74.8639C40.1405 75.4864 41.1926 75.8549 42.3296 75.8549C43.4665 75.8549 44.5189 75.4864 45.3749 74.8639L50.2699 76.4569C50.9968 76.6932 51.8055 76.5679 52.4286 76.1154C53.0503 75.664 53.4215 74.9361 53.4215 74.168V67.329L55.746 65.0045L60.7153 66.6732C56.4828 70.5726 53.712 76.0355 53.3331 82.1368H52.5695C50.5891 82.1368 48.9775 83.7492 48.9775 85.7312ZM82.6217 94.777C82.6217 95.9133 81.6974 96.8377 80.5611 96.8377H71.9842C70.8479 96.8377 69.9235 95.9133 69.9235 94.777V90.7916H82.6215V94.777H82.6217ZM100.404 90.3275C100.404 90.5635 100.212 90.7557 99.9758 90.7557H85.7858C85.8411 89.0496 84.4466 87.6281 82.7439 87.6275H69.8016C68.0987 87.6248 66.7082 89.0505 66.7597 90.7557H52.5698C52.3337 90.7557 52.1415 90.5635 52.1415 90.3275V85.7312C52.1415 85.4939 52.3337 85.3009 52.5698 85.3009H99.9755C100.212 85.3009 100.404 85.4939 100.404 85.7312V90.3275H100.404ZM42.3296 84.0584C41.4559 84.0584 40.7476 84.7668 40.7476 85.6405C40.7476 86.5142 41.4559 87.2225 42.3296 87.2225C43.2033 87.2225 43.9116 86.5142 43.9116 85.6405C43.9116 84.7668 43.2035 84.0584 42.3296 84.0584ZM33.1011 33.241C32.2272 33.241 31.5191 33.9491 31.5191 34.823V38.0803C31.5191 38.9542 32.2272 39.6623 33.1011 39.6623C33.975 39.6623 34.6831 38.9542 34.6831 38.0803V34.823C34.6831 33.9491 33.9748 33.241 33.1011 33.241ZM42.3296 77.7303C41.4559 77.7303 40.7476 78.4387 40.7476 79.3124C40.7476 80.1861 41.4559 80.8944 42.3296 80.8944C43.2033 80.8944 43.9116 80.1861 43.9116 79.3124C43.9116 78.4387 43.2035 77.7303 42.3296 77.7303ZM46.4743 46.7627C45.9702 46.0493 44.983 45.8795 44.2694 46.384C43.9205 46.6304 43.1811 47.0379 42.2096 47.0038C41.3439 46.9727 40.6986 46.6028 40.3911 46.3849C39.6779 45.8795 38.6907 46.0484 38.1857 46.7614C37.6808 47.4744 37.8493 48.4618 38.5623 48.9667C39.2577 49.4595 40.7615 50.1697 42.3283 50.1697C44.1196 50.1697 45.4489 49.4249 46.0955 48.9676C46.8093 48.4634 46.9789 47.476 46.4743 46.7627Z" fill="black"/>
</svg>
