<svg width="59" height="76" viewBox="0 0 59 76" fill="none" xmlns="http://www.w3.org/2000/svg">
<path d="M51.4909 9.83904H44.697V6.79969C44.697 5.81635 43.6243 5.36942 42.641 5.36942H37.3668C36.1154 1.79367 32.9865 0.0057881 29.4108 0.0057881C25.8744 -0.127161 22.6578 2.04126 21.4547 5.36942H16.2699C15.2865 5.36942 14.3032 5.81635 14.3032 6.79969V9.83904H7.50912C3.48302 9.88198 0.189242 13.058 0 17.0799V68.3024C0 72.2358 3.57576 75.0964 7.50912 75.0964H51.4909C55.4242 75.0964 59 72.2358 59 68.3024V17.08C58.8108 13.058 55.517 9.88198 51.4909 9.83904ZM17.8788 8.94518H22.7955C23.6538 8.84047 24.3431 8.18753 24.4941 7.33611C25.0235 5.03064 27.0461 3.37571 29.4108 3.31342C31.7535 3.38443 33.7457 5.0445 34.238 7.33611C34.3983 8.21696 35.1332 8.87828 36.0259 8.94518H41.1214V16.0967H17.8788V8.94518ZM55.4242 68.3026C55.4242 70.2693 53.4576 71.5208 51.4909 71.5208H7.50912C5.54244 71.5208 3.57576 70.2693 3.57576 68.3026V17.08C3.75816 15.0329 5.45415 13.4524 7.50912 13.415H14.303V17.9741C14.3975 18.9757 15.265 19.725 16.2697 19.6726H42.6408C43.664 19.7286 44.5587 18.9896 44.6968 17.9741V13.4148H51.4907C53.5455 13.4524 55.2417 15.0328 55.4241 17.0799V68.3026H55.4242Z" fill="white"/>
<path d="M22.6167 39.965C21.9461 39.2581 20.8329 39.2182 20.1136 39.8756L14.3924 45.3286L11.9787 42.8255C11.3082 42.1187 10.195 42.079 9.47565 42.7362C8.78318 43.4617 8.78318 44.6031 9.47565 45.3286L13.1407 49.0831C13.4579 49.4384 13.9162 49.6348 14.3922 49.6196C14.8637 49.6129 15.3136 49.4201 15.6436 49.0831L22.6164 42.468C23.3076 41.8339 23.3538 40.7594 22.7195 40.0683C22.687 40.0322 22.6526 39.9978 22.6167 39.965Z" fill="white"/>
<path d="M48.2727 43.8088H27.7122C26.7247 43.8088 25.9243 44.6092 25.9243 45.5967C25.9243 46.5841 26.7247 47.3845 27.7122 47.3845H48.2727C49.2602 47.3845 50.0606 46.5841 50.0606 45.5967C50.0606 44.6092 49.2602 43.8088 48.2727 43.8088Z" fill="white"/>
<path d="M22.6167 25.6619C21.9461 24.955 20.8329 24.9152 20.1136 25.5726L14.3924 31.0255L11.9787 28.5224C11.3082 27.8156 10.195 27.7757 9.47565 28.4331C8.78318 29.1586 8.78318 30.3 9.47565 31.0255L13.1407 34.7801C13.4579 35.1353 13.9162 35.3317 14.3922 35.3165C14.8637 35.3098 15.3136 35.117 15.6436 34.7801L22.6164 28.165C23.3076 27.5309 23.3538 26.4563 22.7195 25.7652C22.687 25.7291 22.6526 25.6947 22.6167 25.6619Z" fill="white"/>
<path d="M48.2727 29.5057H27.7122C26.7247 29.5057 25.9243 30.3061 25.9243 31.2936C25.9243 32.281 26.7247 33.0815 27.7122 33.0815H48.2727C49.2602 33.0815 50.0606 32.281 50.0606 31.2936C50.0606 30.3061 49.2602 29.5057 48.2727 29.5057Z" fill="white"/>
<path d="M22.6167 54.2678C21.9461 53.5609 20.8329 53.5212 20.1136 54.1785L14.3924 59.6314L11.9787 57.1283C11.3082 56.4215 10.195 56.3818 9.47565 57.039C8.78318 57.7645 8.78318 58.9059 9.47565 59.6314L13.1407 63.386C13.4579 63.7412 13.9162 63.9376 14.3922 63.9224C14.8637 63.9157 15.3136 63.7229 15.6436 63.386L22.6164 56.7709C23.3076 56.1368 23.3538 55.0622 22.7195 54.3711C22.687 54.3352 22.6526 54.3008 22.6167 54.2678Z" fill="white"/>
<path d="M48.2727 58.1118H27.7122C26.7247 58.1118 25.9243 58.9122 25.9243 59.8996C25.9243 60.8871 26.7247 61.6875 27.7122 61.6875H48.2727C49.2602 61.6875 50.0606 60.8871 50.0606 59.8996C50.0606 58.9122 49.2602 58.1118 48.2727 58.1118Z" fill="white"/>
</svg>
