<svg width="59" height="76" viewBox="0 0 59 76" fill="none" xmlns="http://www.w3.org/2000/svg">
<path d="M51.4909 9.83904H44.697V6.79969C44.697 5.81635 43.6243 5.36942 42.641 5.36942H37.3668C36.1154 1.79367 32.9865 0.0057881 29.4108 0.0057881C25.8744 -0.127161 22.6578 2.04126 21.4547 5.36942H16.2699C15.2865 5.36942 14.3032 5.81635 14.3032 6.79969V9.83904H7.50912C3.48302 9.88198 0.189242 13.058 0 17.0799V68.3024C0 72.2358 3.57576 75.0964 7.50912 75.0964H51.4909C55.4242 75.0964 59 72.2358 59 68.3024V17.08C58.8108 13.058 55.517 9.88198 51.4909 9.83904ZM17.8788 8.94518H22.7955C23.6538 8.84047 24.3431 8.18753 24.4941 7.33611C25.0235 5.03064 27.0461 3.37571 29.4108 3.31342C31.7535 3.38443 33.7457 5.0445 34.238 7.33611C34.3983 8.21696 35.1332 8.87828 36.0259 8.94518H41.1214V16.0967H17.8788V8.94518ZM55.4242 68.3026C55.4242 70.2693 53.4576 71.5208 51.4909 71.5208H7.50912C5.54244 71.5208 3.57576 70.2693 3.57576 68.3026V17.08C3.75816 15.0329 5.45415 13.4524 7.50912 13.415H14.303V17.9741C14.3975 18.9757 15.265 19.725 16.2697 19.6726H42.6408C43.664 19.7286 44.5587 18.9896 44.6968 17.9741V13.4148H51.4907C53.5455 13.4524 55.2417 15.0328 55.4241 17.0799V68.3026H55.4242Z" fill="#1F3955"/>
<path d="M22.6167 39.965C21.9462 39.2581 20.833 39.2183 20.1136 39.8757L14.3924 45.3286L11.9788 42.8255C11.3082 42.1187 10.195 42.079 9.47569 42.7362C8.78323 43.4617 8.78323 44.6031 9.47569 45.3286L13.1408 49.0832C13.458 49.4384 13.9162 49.6348 14.3922 49.6196C14.8638 49.6129 15.3136 49.4201 15.6437 49.0832L22.6164 42.4681C23.3077 41.834 23.3539 40.7594 22.7196 40.0683C22.6871 40.0322 22.6527 39.9978 22.6167 39.965Z" fill="#1F3955"/>
<path d="M48.2727 43.8088H27.7122C26.7248 43.8088 25.9243 44.6093 25.9243 45.5967C25.9243 46.5842 26.7248 47.3846 27.7122 47.3846H48.2727C49.2602 47.3846 50.0606 46.5842 50.0606 45.5967C50.0606 44.6093 49.2602 43.8088 48.2727 43.8088Z" fill="#1F3955"/>
<path d="M22.6167 25.6619C21.9462 24.955 20.833 24.9152 20.1136 25.5726L14.3924 31.0255L11.9788 28.5224C11.3082 27.8156 10.195 27.7757 9.47569 28.4331C8.78323 29.1586 8.78323 30.3 9.47569 31.0255L13.1408 34.7801C13.458 35.1353 13.9162 35.3317 14.3922 35.3165C14.8638 35.3098 15.3136 35.117 15.6437 34.7801L22.6164 28.165C23.3077 27.5309 23.3539 26.4563 22.7196 25.7652C22.6871 25.7291 22.6527 25.6947 22.6167 25.6619Z" fill="#1F3955"/>
<path d="M48.2727 29.5057H27.7122C26.7248 29.5057 25.9243 30.3062 25.9243 31.2936C25.9243 32.2811 26.7248 33.0815 27.7122 33.0815H48.2727C49.2602 33.0815 50.0606 32.2811 50.0606 31.2936C50.0606 30.3062 49.2602 29.5057 48.2727 29.5057Z" fill="#1F3955"/>
<path d="M22.6167 54.2678C21.9462 53.5609 20.833 53.5212 20.1136 54.1785L14.3924 59.6314L11.9788 57.1283C11.3082 56.4215 10.195 56.3818 9.47569 57.039C8.78323 57.7645 8.78323 58.9059 9.47569 59.6314L13.1408 63.386C13.458 63.7412 13.9162 63.9376 14.3922 63.9224C14.8638 63.9157 15.3136 63.7229 15.6437 63.386L22.6164 56.7709C23.3077 56.1368 23.3539 55.0622 22.7196 54.3711C22.6871 54.3352 22.6527 54.3008 22.6167 54.2678Z" fill="#1F3955"/>
<path d="M48.2727 58.1117H27.7122C26.7248 58.1117 25.9243 58.9121 25.9243 59.8996C25.9243 60.887 26.7248 61.6874 27.7122 61.6874H48.2727C49.2602 61.6874 50.0606 60.887 50.0606 59.8996C50.0606 58.9121 49.2602 58.1117 48.2727 58.1117Z" fill="#1F3955"/>
</svg>
