<svg width="65" height="65" viewBox="0 0 65 65" fill="none" xmlns="http://www.w3.org/2000/svg">
<path d="M63.2544 28.2719C63.2524 28.2704 63.2509 28.2684 63.2494 28.2669L36.7319 1.75304C35.6016 0.622368 34.0989 0 32.5004 0C30.9019 0 29.3991 0.622368 28.2683 1.75304L1.7647 28.2535C1.75577 28.2624 1.74634 28.2719 1.73791 28.2808C-0.583183 30.615 -0.579215 34.4023 1.74932 36.7306C2.81316 37.7948 4.21772 38.4108 5.71998 38.4757C5.78148 38.4817 5.84298 38.4847 5.90498 38.4847H6.96137V57.9968C6.96137 61.8584 10.1038 65 13.9658 65H24.3403C25.3923 65 26.2448 64.147 26.2448 63.0957V47.7979C26.2448 46.0359 27.6786 44.6027 29.4408 44.6027H35.56C37.3221 44.6027 38.7554 46.0359 38.7554 47.7979V63.0957C38.7554 64.147 39.608 65 40.6599 65H51.0344C54.897 65 58.0389 61.8584 58.0389 57.9968V38.4847H59.0189C60.6169 38.4847 62.1196 37.8623 63.2509 36.7311C65.5819 34.3993 65.5829 30.6051 63.2544 28.2719ZM60.5574 34.0383C60.1462 34.4494 59.5997 34.6761 59.0189 34.6761H56.1344C55.0825 34.6761 54.2299 35.5285 54.2299 36.5804V57.9968C54.2299 59.7582 52.7966 61.1914 51.0344 61.1914H42.5644V47.7979C42.5644 43.9362 39.4225 40.7941 35.56 40.7941H29.4408C25.5782 40.7941 22.4358 43.9362 22.4358 47.7979V61.1914H13.9658C12.2042 61.1914 10.7704 59.7582 10.7704 57.9968V36.5804C10.7704 35.5285 9.91779 34.6761 8.86586 34.6761H6.03095C6.00119 34.6741 5.97193 34.6726 5.94168 34.6721C5.3743 34.6622 4.84213 34.437 4.44338 34.0378C3.59529 33.1898 3.59529 31.8097 4.44338 30.9612C4.44388 30.9612 4.44388 30.9607 4.44437 30.9602L4.44586 30.9587L30.9624 4.44584C31.3731 4.03473 31.9191 3.80859 32.5004 3.80859C33.0811 3.80859 33.6272 4.03473 34.0383 4.44584L60.5489 30.9533C60.5529 30.9572 60.5574 30.9612 60.5613 30.9652C61.405 31.8147 61.4035 33.1918 60.5574 34.0383Z" fill="white"/>
</svg>
