<svg width="89" height="89" viewBox="0 0 89 89" fill="none" xmlns="http://www.w3.org/2000/svg">
<path d="M44.5 88.9586C69.0767 88.9586 89 69.0446 89 44.4793C89 19.9141 69.0767 0 44.5 0C19.9233 0 0 19.9141 0 44.4793C0 69.0446 19.9233 88.9586 44.5 88.9586Z" fill="#FFC2C8"/>
<path d="M1.08973 34.6624V54.2961C5.56198 74.1376 23.2984 88.9585 44.5 88.9585C69.0767 88.9585 89 69.0444 89 44.4792C89 39.255 88.0961 34.2426 86.4407 29.5859H2.55928C1.97278 31.2357 1.48032 32.9297 1.08973 34.6624Z" fill="#E4F2F6"/>
<path d="M87.3196 32.3312H1.68387C0.588582 36.1926 0 40.267 0 44.4793C0 54.5158 3.3269 63.7748 8.93685 71.2176V33.2702H87.5946C87.5068 32.9298 87.415 32.6682 87.3196 32.3312Z" fill="#FFC2C8"/>
<path d="M0.483696 33.3751H88.5163C86.9228 27.8716 84.2779 22.8013 80.8106 18.3805H8.18936C4.72213 22.8012 2.07722 27.8716 0.483696 33.3751Z" fill="#244160"/>
<path d="M85.9985 60.5648V49.9789H65.7922V73.313H78.3808C81.5876 69.5521 84.1789 65.2512 85.9985 60.5648Z" fill="#AFE6FF"/>
<path d="M75.9935 56.0575H85.9985V49.9789H65.7922V73.313H75.9935V56.0575Z" fill="#73C8F0"/>
<path d="M85.9985 49.9788V60.5648C87.0523 57.8506 87.8469 55.0075 88.3527 52.0655V49.9788V47.6257H85.9985H65.7922H63.4381V49.9788V73.313V75.6661H65.7922H76.2249C76.9711 74.9079 77.6902 74.123 78.3809 73.313H65.7922V49.9788H85.9985Z" fill="#E4F2F6"/>
<path d="M89 44.4793C89 44.4628 88.9995 44.4464 88.9995 44.4299L88.5488 43.116H63.2418L60.8877 49.979H88.6614C88.8837 48.1766 89 46.3415 89 44.4793Z" fill="#244160"/>
<path d="M88.6614 49.9789H60.8878V52.7241H88.2339C88.4036 51.8182 88.5473 50.9031 88.6614 49.9789Z" fill="#1F3955"/>
<path d="M63.4381 75.6661V79.1957L74.1038 77.6848C74.8327 77.035 75.5402 76.362 76.2249 75.6663H63.4381V75.6661Z" fill="#E4F2F6"/>
<path d="M25.4511 84.6862C31.226 87.4245 37.6833 88.9585 44.5 88.9585C51.3167 88.9585 57.774 87.4243 63.549 84.6862H25.4511Z" fill="#E4F2F6"/>
<path d="M16.5879 79.1205C24.2212 85.2738 33.9297 88.9585 44.5 88.9585C46.3412 88.9585 48.1554 88.8444 49.938 88.6273V42.3079H16.5879V79.1205Z" fill="white"/>
<path d="M21.296 82.4371C28.0522 86.5728 35.9968 88.9584 44.5 88.9584C44.744 88.9584 44.9867 88.9531 45.2297 88.9492V47.073H21.296V82.4371Z" fill="#FFC2C8"/>
<path d="M36.8289 65.0774C36.7034 65.0774 36.5779 65.0296 36.4822 64.9338L33.3609 61.8141L30.2396 64.9338C30.0481 65.1254 29.7376 65.1254 29.5461 64.9338C29.3545 64.7424 29.3545 64.432 29.5461 64.2406L33.0141 60.7743C33.2055 60.5827 33.5163 60.5827 33.7077 60.7743L37.1757 64.2406C37.3673 64.432 37.3673 64.7424 37.1757 64.9338C37.0799 65.0296 36.9544 65.0774 36.8289 65.0774Z" fill="#F6A96C"/>
<path d="M27.1813 64.097H39.5405V69.3913H27.1813V64.097Z" fill="#373C41"/>
<path d="M27.1813 64.097H29.3392V69.3913H27.1813V64.097Z" fill="#2F3438"/>
<path d="M72.008 62.6836L68.0845 89H65.9264L66.3187 85.6665H52.3902L51.8017 89H49.6438L53.5672 62.6836H72.008Z" fill="#965028"/>
<path d="M53.5672 62.6836L57.4908 89H59.6487L59.2564 85.6665H73.1849L73.7735 89H75.9314L72.0079 62.6836H53.5672Z" fill="#A56941"/>
<path d="M73.1849 83.3135H59.0601L56.3137 65.0774H70.4384L73.1849 83.3135Z" fill="#373C41"/>
<path d="M58.4717 66.6462H70.6748L70.4384 65.0774H56.3137L59.0601 83.3135H60.9818L58.4717 66.6462Z" fill="#2F3438"/>
<path d="M56.6465 83.3784L54.5177 69.0999L52.8475 83.3784H56.6465Z" fill="#823214"/>
<path d="M64.4554 69.4893H59.3548C59.0839 69.4893 58.8644 69.2698 58.8644 68.9991C58.8644 68.7285 59.0839 68.5089 59.3548 68.5089H64.4554C64.7262 68.5089 64.9458 68.7285 64.9458 68.9991C64.9458 69.2698 64.7262 69.4893 64.4554 69.4893Z" fill="#50555A"/>
<path d="M64.6253 72.9209C64.6242 72.9209 64.6232 72.9209 64.6221 72.9209L59.8158 72.8915C59.545 72.8898 59.3266 72.669 59.3284 72.3984C59.3301 72.1288 59.5493 71.9111 59.8187 71.9111H59.8219L64.6282 71.9405C64.899 71.9422 65.1174 72.163 65.1156 72.4337C65.1141 72.7034 64.8947 72.9209 64.6253 72.9209Z" fill="#50555A"/>
<path d="M69.5296 72.9209H66.3908C66.12 72.9209 65.9005 72.7014 65.9005 72.4307C65.9005 72.1601 66.12 71.9406 66.3908 71.9406H69.5296C69.8005 71.9406 70.02 72.1601 70.02 72.4307C70.02 72.7014 69.8005 72.9209 69.5296 72.9209Z" fill="#50555A"/>
<path d="M67.1249 75.6662H60.2587C59.9879 75.6662 59.7683 75.4466 59.7683 75.176C59.7683 74.9053 59.9879 74.6858 60.2587 74.6858H67.1249C67.3957 74.6858 67.6153 74.9053 67.6153 75.176C67.6153 75.4466 67.3957 75.6662 67.1249 75.6662Z" fill="#50555A"/>
<path d="M64.6154 78.8036H60.6919C60.4211 78.8036 60.2015 78.5841 60.2015 78.3134C60.2015 78.0428 60.4211 77.8232 60.6919 77.8232H64.6154C64.8862 77.8232 65.1057 78.0428 65.1057 78.3134C65.1059 78.5841 64.8862 78.8036 64.6154 78.8036Z" fill="#50555A"/>
<path d="M69.4455 78.8036H66.7732C66.5024 78.8036 66.2828 78.5841 66.2828 78.3134C66.2828 78.0428 66.5024 77.8232 66.7732 77.8232H69.4455C69.7163 77.8232 69.9358 78.0428 69.9358 78.3134C69.936 78.5841 69.7163 78.8036 69.4455 78.8036Z" fill="#50555A"/>
<path d="M66.9024 12.1958C66.8961 12.1958 66.8904 12.1963 66.884 12.1963C66.7595 11.2425 65.9455 10.5055 64.9573 10.5055H22.053C21.0648 10.5055 20.2508 11.2427 20.1263 12.1963C20.12 12.1963 20.1143 12.1958 20.1079 12.1958C17.4869 12.1958 15.3622 14.3195 15.3622 16.9392C15.3622 19.559 17.4869 21.6826 20.1079 21.6826C20.1143 21.6826 20.1199 21.6821 20.1263 21.6821C20.2508 22.6359 21.0648 23.3729 22.053 23.3729H64.9573C65.9455 23.3729 66.7595 22.6357 66.884 21.6821C66.8902 21.6821 66.896 21.6826 66.9024 21.6826C69.5234 21.6826 71.6481 19.559 71.6481 16.9392C71.6481 14.3195 69.5234 12.1958 66.9024 12.1958Z" fill="#4FA0BA"/>
<path d="M66.9023 10.8437C66.8961 10.8437 66.8903 10.8443 66.8839 10.8443C66.7595 9.89047 65.9454 9.15344 64.9572 9.15344H22.0529C21.0647 9.15344 20.2507 9.89065 20.1262 10.8443C20.12 10.8443 20.1142 10.8437 20.1078 10.8437C17.4868 10.8437 15.3621 12.9676 15.3621 15.5872C15.3621 18.2069 17.4868 20.3306 20.1078 20.3306C20.1142 20.3306 20.1198 20.3301 20.1262 20.3301C20.2507 21.2839 21.0647 22.0209 22.0529 22.0209H64.9572C65.9454 22.0209 66.7595 21.2837 66.8839 20.3301C66.8902 20.3301 66.8959 20.3306 66.9023 20.3306C69.5233 20.3306 71.648 18.2069 71.648 15.5872C71.648 12.9676 69.5233 10.8437 66.9023 10.8437Z" fill="#4FA0BA"/>
<path d="M64.9582 10.9565C65.0371 10.9565 65.0877 11.0185 65.0953 11.0767L65.301 12.6532L66.8915 12.6473C66.9025 12.6473 66.9131 12.6471 66.9238 12.6469C68.5361 12.6581 69.8443 13.9724 69.8443 15.5865C69.8443 17.2007 68.5363 18.515 66.9238 18.5261C66.9132 18.526 66.9025 18.5258 66.8915 18.5258L65.301 18.5199L65.0953 20.0963C65.0877 20.1547 65.0371 20.2166 64.9582 20.2166H22.0539C21.975 20.2166 21.9244 20.1546 21.9168 20.0963L21.7112 18.5199L20.1206 18.5256C20.1097 18.5256 20.0989 18.5258 20.0883 18.526C18.476 18.5148 17.1678 17.2005 17.1678 15.5864C17.1678 13.9722 18.4759 12.6579 20.0883 12.6468C20.0989 12.6469 20.1097 12.6471 20.1206 12.6471L21.7112 12.6528L21.9168 11.0764C21.9244 11.018 21.975 10.9561 22.0539 10.9561H64.9582V10.9565ZM64.9582 9.15247H22.0539C21.0657 9.15247 20.2517 9.88967 20.1272 10.8433C20.121 10.8433 20.1152 10.8428 20.1088 10.8428C17.4878 10.8428 15.3631 12.9664 15.3631 15.5862C15.3631 18.206 17.4878 20.3296 20.1088 20.3296C20.1152 20.3296 20.1208 20.3291 20.1272 20.3291C20.2517 21.2829 21.0657 22.0199 22.0539 22.0199H64.9582C65.9464 22.0199 66.7605 21.2827 66.8849 20.3291C66.8912 20.3291 66.8969 20.3296 66.9033 20.3296C69.5243 20.3296 71.649 18.206 71.649 15.5862C71.649 12.9664 69.5241 10.8429 66.9032 10.8429C66.8969 10.8429 66.8912 10.8435 66.8847 10.8435C66.7604 9.88967 65.9462 9.15247 64.9582 9.15247Z" fill="#73BFCF"/>
<path d="M35.5569 17.2313L35.777 17.2113C35.8905 17.198 35.9705 17.158 35.9705 17.0246V13.9241L35.5901 13.9041V13.3374H37.4113C38.3919 13.3374 39.0123 13.6574 39.0123 14.5643C39.0123 15.2311 38.5787 15.5911 38.2118 15.7378C38.3919 15.8044 38.492 15.9179 38.5921 16.1446L39.0724 17.1913L39.4528 17.2046V17.7714H37.805V17.2313L37.9985 17.2113C38.152 17.1913 38.1852 17.1314 38.1252 16.998L37.8116 16.3312C37.7183 16.1246 37.625 16.0246 37.3913 16.0246H36.7843V17.1847L37.2178 17.2047V17.7716H35.5567V17.2313H35.5569ZM37.3647 15.391C37.9318 15.391 38.1852 15.131 38.1852 14.6576C38.1852 14.0576 37.8384 13.9842 37.2712 13.9842H36.7841V15.3912H37.3647V15.391Z" fill="white"/>
<path d="M50.1357 16.1574C50.1357 16.8108 50.4491 15.0757 50.9829 15.0757C51.5168 15.0757 51.8769 16.7377 51.8769 16.1908V13.7502L51.49 13.7303V13.1636H53.071V13.7037L52.8509 13.7236C52.7308 13.7369 52.6574 13.7902 52.6574 13.9236V16.3041C52.6574 17.1776 51.9971 17.6843 50.9829 17.6843C49.8889 17.6843 49.3285 17.2442 49.3285 16.1974V13.7502L48.9415 13.7303V13.1636H50.5559V13.7037L50.3358 13.7236C50.2089 13.7369 50.1355 13.777 50.1355 13.9437V16.1574H50.1357Z" fill="white"/>
<path d="M42.1622 17.2313L42.4024 17.2113C42.516 17.2046 42.5759 17.158 42.5759 17.0246V13.9241L42.1956 13.9041V13.3374H43.3964L45.2843 16.398H45.2977V13.9241L44.8574 13.9041V13.3374H46.4851V13.8775L46.2449 13.8975C46.1448 13.9041 46.0848 13.9641 46.0848 14.1042V17.7714H45.3043L43.3764 14.6642H43.363V17.1847L43.7967 17.2047V17.7716H42.1622V17.2313Z" fill="white"/>
</svg>
