<svg width="47" height="48" viewBox="0 0 47 48" fill="none" xmlns="http://www.w3.org/2000/svg">
<path d="M24.7277 45.2507V23.6903H22.2692V45.2507H21.1321C20.4532 45.2507 19.9028 45.8011 19.9028 46.48C19.9028 47.1589 20.4532 47.7092 21.1321 47.7092H25.8649C26.5438 47.7092 27.0942 47.1589 27.0942 46.48C27.0942 45.8011 26.5438 45.2507 25.8649 45.2507H24.7277Z" fill="#55A3BC"/>
<path d="M16.8932 32.0593H2.37646V28.95H14.7855C15.9497 28.95 16.8933 29.8936 16.8933 31.0577V32.0593H16.8932Z" fill="#55A3BC"/>
<path d="M30.1068 32.0593H44.6236V28.95H32.2145C31.0503 28.95 30.1067 29.8936 30.1067 31.0577V32.0593H30.1068Z" fill="#55A3BC"/>
<path d="M16.7943 32.1103H2.45852V12.8005C2.45852 12.1216 1.90819 11.5713 1.22926 11.5713C0.550334 11.5713 0 12.0101 0 12.8005V46.4456C0 47.0946 0.550334 47.6748 1.22926 47.6748C1.90819 47.6748 2.45852 47.1245 2.45852 46.4456V34.5688H15.2304V46.48C15.2304 47.1589 15.7807 47.7092 16.4596 47.7092C17.1385 47.7092 17.6889 47.1589 17.6889 46.48V33.0049C17.689 32.5109 17.2884 32.1103 16.7943 32.1103Z" fill="#1F3955"/>
<path d="M1.22926 11.5713C0.550334 11.5713 0 12.0101 0 12.8005V46.4456C0 47.0946 0.550334 47.6748 1.22926 47.6748C1.90819 47.6748 2.45852 47.1245 2.45852 46.4456V12.8005C2.45852 12.1216 1.90819 11.5713 1.22926 11.5713Z" fill="#1F3955"/>
<path d="M16.7943 32.1104H13.0116C13.5056 32.1104 13.9061 32.5108 13.9061 33.0049V34.5689H15.2303V46.48C15.2303 47.1589 15.7806 47.7092 16.4595 47.7092C17.1385 47.7092 17.6888 47.1589 17.6888 46.48V33.0049C17.689 32.5109 17.2884 32.1104 16.7943 32.1104Z" fill="#1F3955"/>
<path d="M45.7707 11.5713C45.0917 11.5713 44.5414 12.1216 44.5414 12.8005V32.1103H30.2056C29.7115 32.1103 29.311 32.5108 29.311 33.0049V46.48C29.311 47.1589 29.8614 47.7092 30.5403 47.7092C31.2192 47.7092 31.7696 47.1589 31.7696 46.48V34.5688H44.5414V46.4456C44.5414 47.1245 45.0917 47.6748 45.7707 47.6748C46.4496 47.6748 46.9999 47.1892 46.9999 46.4456V12.8005C46.9999 12.1362 46.4496 11.5713 45.7707 11.5713Z" fill="#1F3955"/>
<path d="M29.311 46.4801C29.311 47.159 29.8614 47.7093 30.5403 47.7093C31.2192 47.7093 31.7696 47.159 31.7696 46.4801V34.5688H29.311V46.4801Z" fill="#1F3955"/>
<path d="M45.7707 11.5713C45.0917 11.5713 44.5414 12.1216 44.5414 12.8005V32.1103H43.2173V34.5688H44.5414V46.4456C44.5414 47.1245 45.0917 47.6748 45.7707 47.6748C46.4496 47.6748 46.9999 47.1892 46.9999 46.4456V12.8005C46.9999 12.1362 46.4496 11.5713 45.7707 11.5713Z" fill="#1F3955"/>
<path d="M38.7816 22.9884C38.7816 23.8832 38.0561 24.6087 37.1613 24.6087H23.5825H9.83534C8.94051 24.6087 8.21509 23.8832 8.21509 22.9884C8.21509 22.0936 8.94051 21.3682 9.83534 21.3682H37.1613C38.0561 21.3682 38.7816 22.0936 38.7816 22.9884Z" fill="#FFC2C8"/>
<path d="M37.1613 21.3682H33.3785C34.2734 21.3682 34.9988 22.0936 34.9988 22.9884C34.9988 23.8832 34.2734 24.6087 33.3785 24.6087H37.1613C38.0561 24.6087 38.7815 23.8832 38.7815 22.9884C38.7815 22.0936 38.0561 21.3682 37.1613 21.3682Z" fill="#FFC2C8"/>
<path d="M23.4999 13.7123C24.9101 13.7123 26.0532 12.5691 26.0532 11.159C26.0532 9.74886 24.9101 8.60571 23.4999 8.60571C22.0898 8.60571 20.9467 9.74886 20.9467 11.159C20.9467 12.5691 22.0898 13.7123 23.4999 13.7123Z" fill="#FFDB0D"/>
<path d="M23.5 0C23.1082 0 22.7908 0.317565 22.7908 0.70921V7.32897C22.7908 7.72071 23.1083 8.03818 23.5 8.03818C23.8916 8.03818 24.2093 7.72061 24.2093 7.32897V0.70921C24.2093 0.317565 23.8917 0 23.5 0V0Z" fill="#1F3955"/>
<path d="M23.4999 6.3833C20.0312 6.3833 16.997 8.24182 15.3375 11.0171H31.6623C30.0028 8.24191 26.9686 6.3833 23.4999 6.3833Z" fill="#1F3955"/>
<path d="M23.5 6.3833C22.8523 6.3833 22.2198 6.44825 21.6086 6.57172C24.271 7.10947 26.53 8.7601 27.8796 11.0172H31.6624C30.0029 8.24191 26.9687 6.3833 23.5 6.3833Z" fill="#1F3955"/>
<path d="M33.7361 10.3077H13.2638C12.872 10.3077 12.5546 10.6253 12.5546 11.0169C12.5546 11.4086 12.8721 11.7262 13.2638 11.7262H33.7361C34.1278 11.7262 34.4454 11.4086 34.4454 11.0169C34.4454 10.6253 34.1278 10.3077 33.7361 10.3077Z" fill="#395A6E"/>
</svg>
