<svg width="70" height="70" viewBox="0 0 70 70" fill="none" xmlns="http://www.w3.org/2000/svg">
<path d="M24.3012 52.0503C24.1661 52.2959 23.9567 52.3696 23.7602 52.3696C23.5637 52.3696 23.3671 52.2959 23.232 52.0503L21.8184 49.3955V54.7782C21.8184 55.1104 21.413 55.2824 21.02 55.2824C20.6141 55.2824 20.221 55.1104 20.221 54.7782V47.0969C20.221 46.5073 20.6141 46.2985 21.02 46.2985C21.5973 46.2985 21.8558 46.4213 22.2611 47.146L23.773 49.8991L25.2844 47.146C25.6903 46.4213 25.9605 46.2985 26.5384 46.2985C26.9437 46.2985 27.3368 46.5073 27.3368 47.0969V54.7782C27.3368 55.1104 26.9314 55.2824 26.5384 55.2824C26.1325 55.2824 25.7394 55.1104 25.7394 54.7782V49.4937L24.3012 52.0503Z" fill="#1F3955"/>
<path d="M31.785 50.157H33.6531C33.9725 50.157 34.1567 50.4646 34.1567 50.7962C34.1567 51.0787 33.9971 51.4109 33.6531 51.4109H31.785V53.8809H35.2628C35.5827 53.8809 35.7669 54.2126 35.7669 54.5939C35.7669 54.9255 35.6072 55.2823 35.2628 55.2823H30.8878C30.5316 55.2823 30.1871 55.1098 30.1871 54.7781V46.802C30.1871 46.4704 30.531 46.2979 30.8878 46.2979H35.2628C35.6072 46.2979 35.7669 46.6546 35.7669 46.9863C35.7669 47.3676 35.5827 47.6992 35.2628 47.6992H31.785V50.157Z" fill="#1F3955"/>
<path d="M42.3171 54.7781L39.6746 49.8376V54.7781C39.6746 55.1103 39.2693 55.2823 38.8757 55.2823C38.4703 55.2823 38.0767 55.1103 38.0767 54.7781V46.802C38.0767 46.4581 38.4703 46.2984 38.8757 46.2984C39.4535 46.2984 39.6869 46.4212 40.0682 47.1459L42.44 51.7303V46.7897C42.44 46.4458 42.833 46.2979 43.2389 46.2979C43.632 46.2979 44.0373 46.4453 44.0373 46.7897V54.7781C44.0373 55.1098 43.632 55.2823 43.2389 55.2823C42.8576 55.2823 42.526 55.1595 42.3171 54.7781Z" fill="#1F3955"/>
<path d="M51.1531 46.7898C51.1531 46.4459 51.5462 46.2985 51.9515 46.2985C52.3451 46.2985 52.7505 46.4459 52.7505 46.7898V52.5416C52.7505 54.594 51.4479 55.3561 49.8008 55.3561C48.1415 55.3561 46.8512 54.594 46.8512 52.5416V46.7898C46.8512 46.4459 47.2443 46.2985 47.6502 46.2985C48.0433 46.2985 48.4486 46.4459 48.4486 46.7898V52.5416C48.4486 53.5002 48.9528 53.9552 49.8008 53.9552C50.6489 53.9552 51.1525 53.5002 51.1525 52.5416V46.7898H51.1531Z" fill="#1F3955"/>
<path d="M54.3126 57.7155H48.4705C47.8969 57.7155 47.4323 58.1801 47.4323 58.7531C47.4323 59.3267 47.8969 59.7908 48.4705 59.7908H54.3126C54.8861 59.7908 55.3502 59.3267 55.3502 58.7531C55.3502 58.1801 54.8861 57.7155 54.3126 57.7155Z" fill="#1F3955"/>
<path d="M53.5476 58H20.4524C19.6503 58 19 58.4478 19 59C19 59.5528 19.6503 60 20.4524 60H53.5476C54.3504 60 55 59.5528 55 59C55 58.4478 54.3504 58 53.5476 58Z" fill="#1F3955"/>
<path d="M54.3126 41.869H19.9973C19.4242 41.869 18.9596 42.3336 18.9596 42.9067C18.9596 43.4797 19.4242 43.9444 19.9973 43.9444H54.3126C54.8862 43.9444 55.3503 43.4797 55.3503 42.9067C55.3503 42.3336 54.8862 41.869 54.3126 41.869Z" fill="#1F3955"/>
<path d="M53.7353 29.0019H52.7281C52.3393 21.8515 47.1125 15.9672 40.2717 14.5744L40.472 12.6598C40.5377 12.035 40.3337 11.4091 39.9134 10.9428C39.4931 10.4761 38.8917 10.2085 38.2637 10.2085H36.0468C35.4182 10.2085 34.8174 10.4766 34.3966 10.9428C33.9763 11.4096 33.7728 12.0355 33.8385 12.6598L34.0387 14.5744C27.198 15.9672 21.9712 21.8509 21.5824 29.0014H20.5751C19.6843 29.0014 18.9596 29.7261 18.9596 30.6169V32.7585C18.9596 33.6493 19.6843 34.374 20.5751 34.374H53.7348C54.6256 34.374 55.3503 33.6493 55.3503 32.7585V30.6169C55.3503 29.7267 54.6261 29.0019 53.7353 29.0019ZM35.9389 12.3319C35.9678 12.3004 36.0035 12.2844 36.0468 12.2844H38.2637C38.3064 12.2844 38.3427 12.3004 38.3715 12.3319C38.4004 12.3639 38.4127 12.4019 38.4079 12.4441L38.214 14.2983C37.8642 14.2748 37.5112 14.2615 37.1555 14.2615C36.7993 14.2615 36.4468 14.2748 36.097 14.2983L35.9026 12.4441C35.8983 12.4019 35.9106 12.3639 35.9389 12.3319ZM53.275 32.2987H21.0355V31.0773H25.4089C25.9825 31.0773 26.4471 30.6127 26.4471 30.0396C26.4471 29.4666 25.9825 29.0019 25.4089 29.0019H23.662C24.1053 21.9439 29.9874 16.3373 37.155 16.3373C44.3231 16.3373 50.2052 21.9439 50.6485 29.0019H30.2378C29.6643 29.0019 29.2002 29.4666 29.2002 30.0396C29.2002 30.6127 29.6643 31.0773 30.2378 31.0773H53.275V32.2987Z" fill="#1F3955"/>
<path d="M61.7264 0H12.584C11.1271 0 9.94148 1.18561 9.94148 2.64251V4.51705H8.97324C7.19162 4.51705 5.74219 5.96701 5.74219 7.74863C5.74219 9.53024 7.19162 10.9802 8.97324 10.9802H9.94148V15.4177H8.97324C7.19162 15.4177 5.74219 16.8671 5.74219 18.6493C5.74219 20.4309 7.19162 21.8803 8.97324 21.8803H9.94148V26.3183H8.97324C7.19162 26.3183 5.74219 27.7677 5.74219 29.5499C5.74219 31.3315 7.19162 32.7809 8.97324 32.7809H9.94148V37.2189H8.97324C7.19162 37.2189 5.74219 38.6684 5.74219 40.45C5.74219 42.2321 7.19162 43.6816 8.97324 43.6816H9.94148V48.1196H8.97324C7.19162 48.1196 5.74219 49.569 5.74219 51.3506C5.74219 53.1328 7.19162 54.5822 8.97324 54.5822H9.94148V59.0202H8.97324C7.19162 59.0202 5.74219 60.4696 5.74219 62.2512C5.74219 64.0329 7.19162 65.4828 8.97324 65.4828H9.94148V67.3574C9.94148 68.8143 11.1271 69.9999 12.584 69.9999H61.7264C63.1833 69.9999 64.3694 68.8143 64.3694 67.3574V2.64251C64.3694 1.18561 63.1833 0 61.7264 0V0ZM9.94095 8.90486H8.97324C8.33611 8.90486 7.81754 8.38629 7.81754 7.74863C7.81754 7.1115 8.33611 6.59293 8.97324 6.59293H9.94095V8.90486ZM9.94095 19.805H8.97324C8.33611 19.805 7.81754 19.2864 7.81754 18.6493C7.81754 18.0116 8.33611 17.4936 8.97324 17.4936H9.94095V19.805ZM9.94095 30.7056H8.97324C8.33611 30.7056 7.81754 30.187 7.81754 29.5499C7.81754 28.9122 8.33611 28.3937 8.97324 28.3937H9.94095V30.7056ZM9.94095 41.6062H8.97324C8.33611 41.6062 7.81754 41.0876 7.81754 40.45C7.81754 39.8129 8.33611 39.2943 8.97324 39.2943H9.94095V41.6062ZM9.94095 52.5063H8.97324C8.33611 52.5063 7.81754 51.9883 7.81754 51.3506C7.81754 50.7135 8.33611 50.1949 8.97324 50.1949H9.94095V52.5063ZM9.94095 63.4069H8.97324C8.33611 63.4069 7.81754 62.8884 7.81754 62.2512C7.81754 61.6136 8.33611 61.0955 8.97324 61.0955H9.94095V63.4069ZM62.2935 67.3568C62.2935 67.6698 62.0393 67.9245 61.7264 67.9245H12.584C12.271 67.9245 12.0168 67.6698 12.0168 67.3568V2.64251C12.0168 2.33009 12.271 2.07534 12.584 2.07534H61.7264C62.0393 2.07534 62.2935 2.33009 62.2935 2.64251V67.3568Z" fill="#1F3955"/>
</svg>
