<svg width="63" height="68" viewBox="0 0 63 68" fill="none" xmlns="http://www.w3.org/2000/svg">
<path d="M29.0703 46.1213C29.5514 45.602 29.5514 44.7615 29.0703 44.2422C28.5887 43.7244 27.8086 43.7244 27.3265 44.2422C26.8459 44.7615 26.8459 45.602 27.3265 46.1213C27.8086 46.6391 28.5887 46.6391 29.0703 46.1213Z" fill="#1F3955"/>
<path d="M23.2335 14.6052C23.2335 22.6585 29.3155 29.211 36.7913 29.211C44.267 29.211 50.3491 22.6585 50.3491 14.6052C50.3491 6.55191 44.267 0 36.7913 0C29.3155 0 23.2335 6.55191 23.2335 14.6052ZM47.8843 14.6052C47.8843 21.1945 42.908 26.5552 36.7913 26.5552C30.6746 26.5552 25.6983 21.1945 25.6983 14.6052C25.6983 8.01648 30.6746 2.65573 36.7913 2.65573C42.908 2.65573 47.8843 8.01648 47.8843 14.6052Z" fill="#1F3955"/>
<path d="M14.2585 67.6074C14.7362 68.1262 15.514 68.1319 15.998 67.6183L21.9736 61.2765C22.9888 60.1828 23.2975 58.5637 22.8511 57.1562L24.1364 55.8208C24.8285 55.1007 25.7397 54.7038 26.7029 54.7038H43.0881C45.995 54.7038 48.7425 53.5012 50.8253 51.3176C50.9111 51.2278 50.1747 52.1622 62.0036 36.9323C63.758 34.6963 63.4956 31.3386 61.418 29.4466C59.3534 27.5722 56.2606 27.8414 54.5013 30.039L47.2283 38.0918C46.3099 36.8742 44.9095 36.1152 43.3963 36.1152H29.6521C27.6964 35.2338 25.6212 34.7876 23.48 34.7876C17.5449 34.7876 12.3625 37.7406 9.58127 43.2772C8.40956 43.0381 7.17379 43.4199 6.28477 44.3776L0.421382 50.7127C-0.0573206 51.2299 -0.0582838 52.0667 0.419456 52.5855L14.2585 67.6074ZM23.4796 37.4428C25.3674 37.4428 27.1926 37.8522 28.9057 38.6594C29.0617 38.7331 29.2298 38.771 29.3998 38.771H43.3963C44.7327 38.771 45.8616 39.945 45.8616 41.4262C45.8616 42.8907 44.7558 44.0819 43.3963 44.0819H33.3402C32.6597 44.0819 32.1078 44.6764 32.1078 45.4095C32.1078 46.1431 32.6597 46.7371 33.3402 46.7371H43.3963C46.1149 46.7371 48.3264 44.3548 48.3264 41.4262C48.3264 41.1927 48.3109 40.9613 48.283 40.732C55.3186 32.9412 56.3107 31.8465 56.3531 31.7921C57.2315 30.6751 58.7909 30.5335 59.8282 31.4756C60.8665 32.4214 60.998 34.1002 60.1172 35.2234L49.0622 49.4603C47.4479 51.1298 45.3284 52.0486 43.0881 52.0486H26.7029C25.0972 52.0486 23.5773 52.7101 22.4244 53.91L21.3769 54.999L11.721 44.5976C13.9777 40.0368 18.2124 37.4428 23.4796 37.4428ZM8.0291 46.2541C8.43556 45.8162 9.05971 45.7374 9.55527 46.0673C9.76861 46.2074 9.15603 45.6067 20.2307 57.5204C20.7234 58.0511 20.6969 58.8967 20.2375 59.3917L15.1432 64.7981L3.03258 51.6522L8.0291 46.2541Z" fill="#1F3955"/>
<path d="M35.3123 6.63904V8.19492C33.8776 8.74277 32.847 10.2188 32.847 11.95C32.847 14.1461 34.5056 15.9333 36.5447 15.9333C37.2242 15.9333 37.7771 16.5289 37.7771 17.2609C37.7771 17.993 37.2242 18.5885 36.5447 18.5885C36.0183 18.5885 35.4495 18.2321 34.9443 17.5841C34.5061 17.0228 33.7288 16.9507 33.2077 17.4223C32.6866 17.8944 32.6192 18.7317 33.0575 19.2931C33.7163 20.1372 34.4912 20.7255 35.3123 21.0222V22.5719C35.3123 23.3055 35.8642 23.8995 36.5447 23.8995C37.2252 23.8995 37.7771 23.3055 37.7771 22.5719V21.016C39.2117 20.4676 40.2423 18.9916 40.2423 17.2609C40.2423 15.0643 38.5837 13.2776 36.5447 13.2776C35.8651 13.2776 35.3123 12.682 35.3123 11.95C35.3123 11.218 35.8651 10.6219 36.5447 10.6219C36.9815 10.6219 37.4424 10.8621 37.8777 11.316C38.367 11.826 39.1472 11.812 39.6206 11.2854C40.094 10.7583 40.081 9.91785 39.5922 9.40787C38.9666 8.75574 38.3405 8.38687 37.7771 8.18558V6.63904C37.7771 5.90546 37.2252 5.31091 36.5447 5.31091C35.8642 5.31091 35.3123 5.90546 35.3123 6.63904Z" fill="#1F3955"/>
</svg>
