<svg width="9" height="16" viewBox="0 0 9 16" fill="none" xmlns="http://www.w3.org/2000/svg">
<path d="M8.57536 6.91652L1.89841 0.239695C1.74398 0.0851437 1.53783 0 1.31802 0C1.09821 0 0.892057 0.0851437 0.737627 0.239695L0.245917 0.731284C-0.0740432 1.05161 -0.0740432 1.57223 0.245917 1.89207L5.85271 7.49887L0.239695 13.1119C0.0852657 13.2664 0 13.4725 0 13.6922C0 13.9121 0.0852657 14.1181 0.239695 14.2728L0.731406 14.7643C0.885958 14.9188 1.09199 15.004 1.3118 15.004C1.53161 15.004 1.73776 14.9188 1.89219 14.7643L8.57536 8.08133C8.73016 7.92629 8.81518 7.71929 8.81469 7.49923C8.81518 7.27832 8.73016 7.07144 8.57536 6.91652Z" fill="white"/>
</svg>
