<svg width="121" height="123" viewBox="0 0 121 123" fill="none" xmlns="http://www.w3.org/2000/svg">
<path d="M63.6608 116.497V60.9901H57.3314V116.497H54.4039C52.6561 116.497 51.2393 117.913 51.2393 119.661C51.2393 121.409 52.6561 122.826 54.4039 122.826H66.5884C68.3363 122.826 69.7531 121.409 69.7531 119.661C69.7531 117.913 68.3363 116.497 66.5884 116.497H63.6608Z" fill="#55A3BC"/>
<path d="M43.4911 82.5358H6.11816V74.5307H38.0649C41.0619 74.5307 43.4914 76.9601 43.4914 79.9571V82.5358H43.4911Z" fill="#55A3BC"/>
<path d="M77.5089 82.5358H114.882V74.5307H82.9351C79.9381 74.5307 77.5087 76.9601 77.5087 79.9571V82.5358H77.5089Z" fill="#55A3BC"/>
<path d="M43.2365 82.667H6.32938V32.9546C6.32938 31.2067 4.91256 29.7899 3.16469 29.7899C1.41682 29.7899 0 30.9196 0 32.9546V119.573C0 121.244 1.41682 122.737 3.16469 122.737C4.91256 122.737 6.32938 121.321 6.32938 119.573V88.9964H39.2101V119.661C39.2101 121.409 40.6269 122.826 42.3748 122.826C44.1226 122.826 45.5394 121.409 45.5394 119.661V84.97C45.5397 83.6983 44.5084 82.667 43.2365 82.667Z" fill="#1F3955"/>
<path d="M3.16469 29.7899C1.41682 29.7899 0 30.9196 0 32.9546V119.573C0 121.244 1.41682 122.737 3.16469 122.737C4.91256 122.737 6.32938 121.321 6.32938 119.573V32.9546C6.32938 31.2067 4.91256 29.7899 3.16469 29.7899Z" fill="#1F3955"/>
<path d="M43.2365 82.6671H33.4979C34.7698 82.6671 35.8009 83.6981 35.8009 84.97V88.9964H39.2098V119.661C39.2098 121.409 40.6266 122.826 42.3745 122.826C44.1224 122.826 45.5392 121.409 45.5392 119.661V84.97C45.5397 83.6984 44.5084 82.6671 43.2365 82.6671Z" fill="#1F3955"/>
<path d="M117.835 29.7899C116.087 29.7899 114.67 31.2067 114.67 32.9546V82.667H77.7633C76.4914 82.667 75.4603 83.6981 75.4603 84.97V119.661C75.4603 121.409 76.8771 122.826 78.625 122.826C80.3729 122.826 81.7897 121.409 81.7897 119.661V88.9964H114.67V119.573C114.67 121.321 116.087 122.737 117.835 122.737C119.583 122.737 121 121.487 121 119.573V32.9546C121 31.2442 119.583 29.7899 117.835 29.7899Z" fill="#1F3955"/>
<path d="M75.4603 119.661C75.4603 121.409 76.8771 122.826 78.625 122.826C80.3729 122.826 81.7897 121.409 81.7897 119.661V88.9964H75.4603V119.661Z" fill="#1F3955"/>
<path d="M117.835 29.7899C116.087 29.7899 114.67 31.2067 114.67 32.9546V82.667H111.261V88.9964H114.67V119.573C114.67 121.321 116.087 122.737 117.835 122.737C119.583 122.737 121 121.487 121 119.573V32.9546C121 31.2442 119.583 29.7899 117.835 29.7899Z" fill="#1F3955"/>
<path d="M99.8419 59.1829C99.8419 61.4867 97.9744 63.3542 95.6707 63.3542H60.7125H25.3208C23.0171 63.3542 21.1495 61.4867 21.1495 59.1829C21.1495 56.8792 23.0171 55.0117 25.3208 55.0117H95.6707C97.9744 55.0117 99.8419 56.8792 99.8419 59.1829Z" fill="#FFC2C8"/>
<path d="M95.6705 55.0117H85.932C88.2357 55.0117 90.1033 56.8792 90.1033 59.1829C90.1033 61.4867 88.2357 63.3542 85.932 63.3542H95.6705C97.9742 63.3542 99.8418 61.4867 99.8418 59.1829C99.8418 56.8792 97.9742 55.0117 95.6705 55.0117Z" fill="#FFC2C8"/>
<path d="M60.4999 35.3018C64.1302 35.3018 67.0732 32.3588 67.0732 28.7284C67.0732 25.0981 64.1302 22.1551 60.4999 22.1551C56.8695 22.1551 53.9265 25.0981 53.9265 28.7284C53.9265 32.3588 56.8695 35.3018 60.4999 35.3018Z" fill="#FFDB0D"/>
<path d="M60.4999 0C59.4914 0 58.6741 0.817561 58.6741 1.82584V18.8682C58.6741 19.8767 59.4916 20.694 60.4999 20.694C61.5082 20.694 62.326 19.8765 62.326 18.8682V1.82584C62.326 0.817561 61.5084 0 60.4999 0V0Z" fill="#1F3955"/>
<path d="M60.4998 16.4336C51.5697 16.4336 43.7582 21.2183 39.486 28.363H81.5136C77.2413 21.2185 69.4299 16.4336 60.4998 16.4336Z" fill="#1F3955"/>
<path d="M60.4999 16.4336C58.8326 16.4336 57.2042 16.6008 55.6307 16.9186C62.485 18.3031 68.3005 22.5526 71.7752 28.3633H81.5137C77.2414 21.2185 69.43 16.4336 60.4999 16.4336Z" fill="#1F3955"/>
<path d="M86.8525 26.537H34.1471C33.1386 26.537 32.3213 27.3546 32.3213 28.3629C32.3213 29.3712 33.1389 30.1887 34.1471 30.1887H86.8525C87.861 30.1887 88.6786 29.3712 88.6786 28.3629C88.6786 27.3546 87.861 26.537 86.8525 26.537Z" fill="#395A6E"/>
</svg>
