<svg width="77" height="78" viewBox="0 0 77 78" fill="none" xmlns="http://www.w3.org/2000/svg">
<path d="M42.2607 71.7542H41.5803V40.7861H60.2258C62.2685 40.7861 63.9303 39.1027 63.9303 37.0334C63.9303 34.9642 62.2685 33.2808 60.2258 33.2808H25.9821C25.3592 33.2808 24.8542 33.7923 24.8542 34.4233C24.8542 35.0543 25.3592 35.5659 25.9821 35.5659H60.2258C61.0246 35.5659 61.6745 36.2242 61.6745 37.0334C61.6745 37.8427 61.0246 38.501 60.2258 38.501H16.7692C15.9703 38.501 15.3205 37.8427 15.3205 37.0334C15.3205 36.2242 15.9703 35.5659 16.7692 35.5659H20.0734C20.6963 35.5659 21.2014 35.0543 21.2014 34.4233C21.2014 33.7923 20.6963 33.2808 20.0734 33.2808H16.7692C14.7264 33.2808 13.0646 34.9642 13.0646 37.0334C13.0646 39.1027 14.7264 40.7861 16.7692 40.7861H35.4146V71.7544H34.7341C30.7675 71.7544 30.7612 78.0002 34.7341 78.0002H42.2607C46.2273 78 46.2337 71.7542 42.2607 71.7542ZM42.2607 75.7149H34.7341C33.6651 75.7149 33.6651 74.0394 34.7341 74.0394H36.5425C37.1655 74.0394 37.6705 73.5278 37.6705 72.8968V40.83H39.3245V72.8968C39.3245 73.5278 39.8295 74.0394 40.4524 74.0394H42.2607C43.3298 74.0394 43.3298 75.7149 42.2607 75.7149Z" fill="#1F3955"/>
<path d="M29.1213 50.9414C29.2033 48.179 27.6877 45.4944 24.6414 45.4944H6.16572V20.6211C6.16572 16.6137 0 16.5567 0 20.6211V74.8216C0 78.8273 6.16572 78.8488 6.16572 74.8216V56.8313H24.221V74.8771C24.221 78.8951 30.3867 78.9015 30.3867 74.8771V53.1693C30.3866 52.2197 29.8768 51.3904 29.1213 50.9414ZM24.6415 47.7795C26.1508 47.7795 27.0117 49.1907 26.8656 50.5856H6.16572V47.7795H24.6415ZM28.1307 74.8771C28.1307 75.9599 26.4767 75.9599 26.4767 74.8771V55.6888C26.4767 55.0578 25.9717 54.5462 25.3488 54.5462H5.03779C4.41487 54.5462 3.90986 55.0578 3.90986 55.6888V74.8216C3.90986 75.9144 2.25586 75.8844 2.25586 74.8216V20.6211C2.25586 19.4825 3.90986 19.5597 3.90986 20.6211V51.7281C3.90986 52.3591 4.41487 52.8707 5.03779 52.8707H27.8361C27.9987 52.8707 28.1309 53.0046 28.1309 53.1693V74.8771H28.1307Z" fill="#1F3955"/>
<path d="M73.9171 17.4982C72.2173 17.4982 70.8343 18.8991 70.8343 20.6211V45.4944H52.3585C49.3242 45.4944 47.7836 48.1759 47.8785 50.9414C47.1231 51.3906 46.6133 52.2198 46.6133 53.1693V74.8771C46.6133 78.8952 52.779 78.9016 52.779 74.8771V56.8314H70.8343V63.7316C70.8343 64.3626 71.3393 64.8742 71.9622 64.8742C72.5851 64.8742 73.0901 64.3626 73.0901 63.7316V55.6888C73.0901 55.0578 72.5851 54.5462 71.9622 54.5462H51.6512C51.0283 54.5462 50.5233 55.0578 50.5233 55.6888V74.8771C50.5233 75.9599 48.8693 75.9599 48.8693 74.8771V53.1693C48.8693 53.0046 49.0015 52.8707 49.164 52.8707H71.9624C72.5853 52.8707 73.0903 52.3592 73.0903 51.7281V20.6211C73.0903 19.5364 74.7443 19.5429 74.7443 20.6211V74.8216C74.7443 75.9546 73.0903 75.8804 73.0903 74.8216V69.8234C73.0903 69.1924 72.5853 68.6808 71.9624 68.6808C71.3394 68.6808 70.8344 69.1924 70.8344 69.8234V74.8216C70.8344 78.8325 77.0001 78.8728 77.0001 74.8216V20.6211C77 18.8991 75.617 17.4982 73.9171 17.4982ZM50.1345 50.5856C49.9885 49.1907 50.8493 47.7795 52.3586 47.7795H70.8344V50.5856H50.1345Z" fill="#1F3955"/>
<path d="M22.2214 18.8906H33.3917C33.8201 21.3543 35.947 23.2324 38.5 23.2324C41.053 23.2324 43.1799 21.3543 43.6083 18.8906H54.7786C55.4015 18.8906 55.9065 18.3791 55.9065 17.748C55.9065 17.117 55.4015 16.6055 54.7786 16.6055H52.1034C50.7134 14.4516 48.8348 12.6427 46.6351 11.3507C44.4982 10.0954 42.096 9.35482 39.6279 9.18115V1.14258C39.6279 0.51157 39.1229 0 38.5 0C37.8771 0 37.3721 0.51157 37.3721 1.14258V9.18115C34.904 9.35482 32.502 10.0954 30.3649 11.3507C28.1653 12.6427 26.2866 14.4516 24.8966 16.6055H22.2214C21.5985 16.6055 21.0935 17.117 21.0935 17.748C21.0935 18.3791 21.5985 18.8906 22.2214 18.8906ZM38.5 20.9473C37.1979 20.9473 36.0925 20.0826 35.7109 18.8906H41.289C40.9075 20.0826 39.8021 20.9473 38.5 20.9473ZM38.5 11.4258C42.693 11.4258 46.6724 13.3689 49.3083 16.6055H27.6917C30.3276 13.3689 34.307 11.4258 38.5 11.4258Z" fill="#1F3955"/>
</svg>
