<svg width="81" height="84" viewBox="0 0 81 84" fill="none" xmlns="http://www.w3.org/2000/svg">
<path d="M2.87048 84.0001C1.96437 84.0001 1.22986 83.2656 1.22986 82.3595V63.7356C1.22986 59.3515 4.03516 55.4567 8.19989 54.0585L11.4447 52.9692L14.6717 52.656L16.709 51.2019L23.01 49.0866C24.3983 48.6205 25.3333 47.3223 25.3333 45.861V40.3188H40.5131V45.861C40.5131 47.3223 41.1417 50.0127 42.5298 50.4788L49.1374 51.2019L57.6465 54.0584C61.8113 55.4565 64.6166 59.3514 64.6166 63.7354V82.3595C64.6166 83.2656 63.882 84.0001 62.9759 84.0001H54.4017L32.9231 81.5392L11.4447 84.0001H2.87048Z" fill="#F8F5F9"/>
<path d="M38.6444 51.7925L52.7246 56.5193C56.8893 57.9174 59.6946 61.8123 59.6946 66.1964V84.0001H62.9759C63.882 84.0001 64.6165 83.2656 64.6165 82.3595V63.7354C64.6165 59.3513 61.8112 55.4565 57.6465 54.0584L42.8364 49.0866C42.4797 48.9668 42.1531 48.7924 41.8636 48.5734L38.6444 51.7925Z" fill="#DBD9EC"/>
<path d="M23.0098 49.0866C24.3981 48.6205 25.3331 47.3223 25.3331 45.861V40.3188H38.052V45.861C38.052 47.3223 41.4481 48.6207 42.8362 49.0866L32.9229 56.1639L23.0098 49.0866Z" fill="#F1CCBD"/>
<path d="M40.5131 45.861V40.3188H35.5912V48.3219C35.5912 49.7832 36.5264 51.0816 37.9145 51.5475L38.9176 51.8842L42.8364 49.0866C41.9948 48.8039 41.2819 48.1866 40.8821 47.4009C40.6445 46.9339 40.5131 46.4089 40.5131 45.861Z" fill="#EAAD9C"/>
<path d="M25.7231 53.8069C25.9634 54.047 26.2784 54.1671 26.5933 54.1671C26.9081 54.1671 27.2231 54.047 27.4634 53.8069C27.944 53.3262 27.944 52.5472 27.4634 52.0666L23.9755 48.5787C23.6884 48.7947 23.364 48.9683 23.01 49.0873L21.5078 49.5914L25.7231 53.8069Z" fill="#E2DFE3"/>
<path d="M39.2964 54.1111C39.6113 54.1111 39.9263 53.991 40.1666 53.7508L44.3297 49.5877L42.8366 49.0865C42.4796 48.9668 42.1532 48.791 41.8645 48.5725L38.4266 52.0104C37.946 52.4911 37.946 53.2701 38.4266 53.7506C38.6668 53.991 38.9816 54.1111 39.2964 54.1111Z" fill="#E2DFE3"/>
<path d="M11.4446 84.0001V72.7464C11.4446 72.0931 11.6407 71.4567 12.0043 70.914C12.9794 69.4583 14.3764 66.8402 14.6032 63.3309C14.9569 57.8573 12.2195 53.9916 11.4446 52.9694C13.1995 52.3802 14.9541 51.7912 16.7089 51.2021L17.1391 52.5705C20.0765 61.916 25.5388 70.2684 32.9232 76.7056C40.3077 70.2684 45.77 61.9162 48.7073 52.5705L49.1375 51.2021C50.8923 51.7912 52.647 52.3802 54.4018 52.9694C53.6269 53.9916 50.8895 57.8573 51.2433 63.3309C51.47 66.8402 52.867 69.4583 53.8422 70.914C54.2057 71.4567 54.4018 72.0931 54.4018 72.7464V84.0001H11.4446Z" fill="#4F6D8F"/>
<path d="M17.1862 18.3675L48.6601 20.8284V8.48991C48.6601 4.48055 45.4025 1.23047 41.3839 1.23047H24.4622C20.4437 1.23047 17.186 4.48055 17.186 8.48991V18.3675H17.1862Z" fill="#C6855B"/>
<path d="M41.384 1.23047H36.4621C40.4806 1.23047 43.7383 4.48071 43.7383 8.48991V20.4437L48.6601 20.8286V8.48991C48.6601 4.48071 45.4025 1.23047 41.384 1.23047Z" fill="#C17E4E"/>
<path d="M49.7453 27.7652H48.6602V21.6895H49.7453C51.423 21.6895 52.7833 23.0496 52.7833 24.7275C52.7831 26.405 51.423 27.7652 49.7453 27.7652Z" fill="#F1CCBD"/>
<path d="M33.0807 45.2146C35.7967 45.2146 38.1946 45.3894 40.4244 44.1807C45.3301 41.5219 48.6602 36.3364 48.6602 30.3748V18.3674C45.9515 18.6943 41.5935 18.8734 36.5192 17.5104C32.8113 16.5144 29.9064 15.0132 27.874 13.7412C27.6257 13.5858 27.305 13.6126 27.0886 13.8098C26.1411 14.6732 24.8062 15.7047 23.0518 16.5867C20.7325 17.7527 18.6107 18.1894 17.1863 18.3676V30.375C17.1863 36.3005 20.4762 41.4592 25.3331 44.1323C27.5839 45.3708 33.0807 45.2146 33.0807 45.2146Z" fill="#F1CCBD"/>
<path d="M43.7383 18.5818V30.3749C43.7716 31.4398 43.8213 36.5911 39.921 40.626C36.2925 44.3799 30.6487 45.7157 25.3333 44.1319C26.8526 44.9448 28.917 45.7653 31.4319 46.0056C31.9506 46.0552 32.4486 46.0763 32.9233 46.0757C41.6145 46.0757 48.6602 39.0463 48.6602 30.3749V18.3675C47.3636 18.5238 45.6883 18.6459 43.7383 18.5818Z" fill="#EAAD9C"/>
<path d="M25.7454 30.8486C25.0657 30.8486 24.515 30.2978 24.515 29.6181V27.0847C24.515 26.4049 25.0657 25.8542 25.7454 25.8542C26.4251 25.8542 26.9759 26.4049 26.9759 27.0847V29.6181C26.9759 30.2978 26.425 30.8486 25.7454 30.8486Z" fill="#455E7E"/>
<path d="M40.101 30.8485C39.4213 30.8485 38.8705 30.2978 38.8705 29.618V27.0846C38.8705 26.4049 39.4213 25.8541 40.101 25.8541C40.7807 25.8541 41.3315 26.4049 41.3315 27.0846V29.618C41.3315 30.2978 40.7806 30.8485 40.101 30.8485Z" fill="#455E7E"/>
<path d="M32.9223 39.0212C32.8627 39.0212 32.8027 39.0202 32.7417 39.0179C31.4948 38.9734 30.5586 38.4862 29.993 38.0854C29.4384 37.6924 29.3072 36.9246 29.7001 36.3701C30.093 35.8156 30.8607 35.6842 31.4154 36.0772C31.6546 36.2466 32.1564 36.5343 32.8298 36.5586C33.5853 36.5852 34.1603 36.2682 34.4318 36.0766C34.9869 35.6842 35.7547 35.8162 36.1468 36.3711C36.5392 36.9259 36.4073 37.6939 35.8523 38.086C35.3494 38.4419 34.3155 39.0212 32.9223 39.0212Z" fill="#EAAD9C"/>
<path d="M16.1011 27.7652H17.1862V21.6895H16.1011C14.4234 21.6895 13.0632 23.0496 13.0632 24.7275C13.0632 26.405 14.4232 27.7652 16.1011 27.7652Z" fill="#EAAD9C"/>
<path d="M31.6928 75.597V84.0001H34.1537V75.5968C33.7495 75.972 33.3398 76.3421 32.9233 76.7054C32.5066 76.3423 32.0971 75.9722 31.6928 75.597Z" fill="#455E7E"/>
<path d="M32.9231 56.1639L39.4794 58.2965C39.894 58.4314 40.3194 58.1223 40.3194 57.6864V52.2354C40.3194 51.7995 39.894 51.4904 39.4794 51.6253L32.9231 53.7579L26.3669 51.6253C25.9523 51.4904 25.5269 51.7995 25.5269 52.2354V57.6864C25.5269 58.1223 25.9523 58.4314 26.3669 58.2965C26.367 58.2965 32.9231 56.1639 32.9231 56.1639Z" fill="#4F6D8F"/>
<path d="M32.9231 57.7681C34.4733 57.7681 35.73 56.5114 35.73 54.9611C35.73 53.4109 34.4733 52.1542 32.9231 52.1542C31.3729 52.1542 30.1161 53.4109 30.1161 54.9611C30.1161 56.5114 31.3729 57.7681 32.9231 57.7681Z" fill="#455E7E"/>
<path d="M32.9232 62.918C33.6027 62.918 34.1536 62.3671 34.1536 61.6875C34.1536 61.0079 33.6027 60.457 32.9232 60.457C32.2436 60.457 31.6927 61.0079 31.6927 61.6875C31.6927 62.3671 32.2436 62.918 32.9232 62.918Z" fill="#E2DFE3"/>
<path d="M32.9232 67.8398C33.6027 67.8398 34.1536 67.2889 34.1536 66.6094C34.1536 65.9298 33.6027 65.3789 32.9232 65.3789C32.2436 65.3789 31.6927 65.9298 31.6927 66.6094C31.6927 67.2889 32.2436 67.8398 32.9232 67.8398Z" fill="#E2DFE3"/>
<path d="M32.9232 72.7617C33.6027 72.7617 34.1536 72.2108 34.1536 71.5312C34.1536 70.8517 33.6027 70.3008 32.9232 70.3008C32.2436 70.3008 31.6927 70.8517 31.6927 71.5312C31.6927 72.2108 32.2436 72.7617 32.9232 72.7617Z" fill="#E2DFE3"/>
<path d="M40.8885 71.8187H77.7584C78.6224 71.8187 79.3226 71.1183 79.3226 70.2545V66.6793C79.3226 65.8153 78.6222 65.1151 77.7584 65.1151H40.8885C40.0246 65.1151 39.3243 65.8155 39.3243 66.6793V70.2545C39.3243 71.1183 40.0246 71.8187 40.8885 71.8187Z" fill="#CFCCE3"/>
<path d="M77.7584 65.1149H72.8365C73.7005 65.1149 74.4007 65.8153 74.4007 66.679V70.2543C74.4007 71.1181 73.7003 71.8185 72.8365 71.8185H77.7584C78.6224 71.8185 79.3226 71.1181 79.3226 70.2543V66.679C79.3226 65.8153 78.6224 65.1149 77.7584 65.1149Z" fill="#BAB4DC"/>
<path d="M59.3234 50.4789C61.4214 50.4789 63.1221 48.7781 63.1221 46.6802C63.1221 44.5822 61.4214 42.8815 59.3234 42.8815C57.2255 42.8815 55.5247 44.5822 55.5247 46.6802C55.5247 48.7781 57.2255 50.4789 59.3234 50.4789Z" fill="#DBD8EA"/>
<path d="M59.3235 48.3561C68.5175 48.3561 75.9709 55.8093 75.9709 65.0036V65.1153H42.6762V65.0036C42.6762 55.8093 50.1294 48.3561 59.3235 48.3561Z" fill="#DBD8EA"/>
<path d="M59.3234 48.3561C58.4872 48.3561 57.6656 48.4185 56.8625 48.5376C64.8896 49.727 71.049 56.6457 71.049 65.0036V65.1153H75.9708V65.0036C75.9708 55.8093 68.5175 48.3561 59.3234 48.3561Z" fill="#CFCCE3"/>
<path d="M55.9878 76.5487H62.6589C64.2236 76.5487 65.4921 75.2803 65.4921 73.7155V70.5207C65.4921 69.8937 64.9837 69.3853 64.3567 69.3853H54.2904C53.6634 69.3853 53.155 69.8937 53.155 70.5207V73.7155C53.1548 75.2803 54.4232 76.5487 55.9878 76.5487Z" fill="#F1CCBD"/>
<path d="M64.3565 69.3853H59.4346C60.0618 69.3853 60.5701 69.8937 60.5701 70.5207V73.7155C60.5701 75.2802 59.3017 76.5487 57.7369 76.5487H62.6588C64.2234 76.5487 65.492 75.2803 65.492 73.7155V70.5207C65.4921 69.8937 64.9837 69.3853 64.3565 69.3853Z" fill="#EAAD9C"/>
<path d="M40.101 30.8485C40.7807 30.8485 41.3314 30.2978 41.3314 29.618V27.0846C41.3314 26.4049 40.7807 25.8541 40.101 25.8541C39.4213 25.8541 38.8705 26.4049 38.8705 27.0846V29.618C38.8705 30.2978 39.4213 30.8485 40.101 30.8485ZM32.9231 70.3008C32.2435 70.3008 31.6926 70.8517 31.6926 71.5312C31.6926 72.2108 32.2435 72.7617 32.9231 72.7617C33.6026 72.7617 34.1535 72.2108 34.1535 71.5312C34.1535 70.8517 33.6028 70.3008 32.9231 70.3008ZM77.7591 63.8843H77.165C76.985 60.9976 76.1119 58.1984 74.6097 55.7278C74.2567 55.1468 73.4995 54.9626 72.9191 55.3156C72.3384 55.6685 72.1539 56.4255 72.5069 57.0063C73.7746 59.0914 74.5238 61.4493 74.7 63.8843H43.9468C44.522 55.9036 51.1988 49.5864 59.3234 49.5864C62.8628 49.5864 66.1913 50.7527 68.9487 52.9597C69.4797 53.3846 70.2537 53.2985 70.6783 52.7679C71.1029 52.2373 71.0169 51.463 70.4865 51.0384C68.6298 49.5525 66.4906 48.4634 64.2201 47.816C64.3056 47.4459 64.3517 47.0656 64.3517 46.681C64.3517 43.9074 62.0958 41.6509 59.3232 41.6509C56.5505 41.6509 54.2948 43.9074 54.2948 46.681C54.2948 47.063 54.3403 47.4403 54.4246 47.808C52.6757 48.3069 51.0366 49.0675 49.5498 50.0422L43.2287 47.9195C42.3408 47.6216 41.7442 46.7941 41.7442 45.8606V44.8334C46.6256 41.8569 49.8906 36.4895 49.8906 30.3752V28.9921C52.177 28.9152 54.0136 27.0322 54.0136 24.7275C54.0136 22.4228 52.177 20.5398 49.8906 20.4629V8.48991C49.8906 3.80855 46.0745 0 41.3839 0H24.4622C19.7717 0 15.9556 3.80855 15.9556 8.48991V20.4627C13.6692 20.5396 11.8325 22.4226 11.8325 24.7273C11.8325 27.0321 13.6692 28.915 15.9556 28.992V30.3749C15.9556 36.4895 19.2207 41.8569 24.1023 44.8334V45.8604C24.1023 46.7937 23.5057 47.6213 22.6178 47.9194L7.80855 52.8921C3.13802 54.4592 0 58.8167 0 63.7352V82.7695C0 83.4492 0.550758 84 1.23047 84C1.91018 84 2.46094 83.4492 2.46094 82.7695V63.735C2.46094 59.8754 4.92466 56.4554 8.59163 55.2251L10.9681 54.4271C12.0483 56.0672 13.6367 59.2134 13.3752 63.2522C13.1745 66.3623 11.9629 68.7635 10.9835 70.2276C10.4805 70.9756 10.2144 71.8467 10.2144 72.747V82.7695C10.2144 83.4492 10.7651 84 11.4448 84C12.1245 84 12.6753 83.4492 12.6753 82.7695V72.747C12.6753 72.3378 12.7962 71.9416 13.0271 71.5985C14.1761 69.8809 15.5951 67.0663 15.831 63.4108C16.1104 59.0951 14.5957 55.6531 13.368 53.6215L15.9116 52.7676C18.8467 62.2191 24.3055 70.6842 31.6926 77.2598V82.7695C31.6926 83.4492 32.2434 84 32.9231 84C33.6028 84 34.1535 83.4492 34.1535 82.7695V77.2582C35.8787 75.7216 37.5098 74.0708 39.0241 72.3306C39.519 72.7755 40.1714 73.0488 40.8877 73.0488H51.9243V73.7156C51.9243 74.8632 52.4034 75.9004 53.171 76.6402V82.7695C53.171 83.4492 53.7218 84 54.4015 84C55.0812 84 55.632 83.4492 55.632 82.7695V77.7627C56.1698 77.8145 63.1496 77.7556 63.3857 77.7128V82.7695C63.3857 83.4492 63.9365 84 64.6162 84C65.2959 84 65.8466 83.4492 65.8466 82.7695V76.2313C66.3943 75.5388 66.7226 74.6652 66.7226 73.7157V73.049H77.7592C79.2999 73.049 80.5532 71.7956 80.5532 70.255V66.6801C80.553 65.1384 79.2996 63.8843 77.7591 63.8843ZM59.3234 44.1115C60.7392 44.1115 61.8909 45.264 61.8909 46.6807C61.8909 46.8927 61.8637 47.1017 61.8132 47.3043C60.9907 47.188 60.1591 47.1253 59.3232 47.1253C58.4779 47.1253 57.6466 47.1857 56.8324 47.2997C56.7827 47.0986 56.7558 46.8912 56.7558 46.6807C56.7558 45.2642 57.9077 44.1115 59.3234 44.1115ZM49.8906 22.9256C50.8195 22.9998 51.5527 23.7795 51.5527 24.7272C51.5527 25.6748 50.8195 26.4546 49.8906 26.5287V22.9256ZM15.9557 26.5289C15.0268 26.4548 14.2936 25.675 14.2936 24.7273C14.2936 23.7797 15.0268 22.9999 15.9557 22.9258V26.5289ZM18.4167 30.3749V19.423C20.2227 19.0936 21.9632 18.5112 23.6045 17.6861C25.0381 16.9652 26.3765 16.0668 27.5892 15.0114C29.4095 16.1177 31.3384 17.0499 33.3288 17.7849C33.9667 18.0203 34.674 17.6945 34.9094 17.0569C35.145 16.4194 34.819 15.7118 34.1814 15.4763C32.214 14.7495 30.3114 13.8149 28.5267 12.6981C27.8127 12.2509 26.8803 12.3341 26.2598 12.8999C25.1281 13.9309 23.8629 14.8014 22.4989 15.487C21.2023 16.139 19.834 16.6164 18.4165 16.9142V8.48958C18.4165 5.16518 21.1285 2.46061 24.4622 2.46061H41.3839C44.7175 2.46061 47.4296 5.16518 47.4296 8.48958V17.2568C44.7951 17.4817 42.1513 17.3693 39.555 16.9201C38.8858 16.8051 38.2487 17.2533 38.1327 17.9228C38.0171 18.5925 38.4659 19.2293 39.1355 19.3451C41.8709 19.8181 44.6545 19.9457 47.4296 19.7262V30.3745C47.4296 38.3535 40.9221 44.8448 32.9232 44.8448C24.9242 44.8453 18.4167 38.3539 18.4167 30.3749ZM36.7882 53.7954L39.0894 53.0468V56.8754L36.7882 56.1268C36.8998 55.7575 36.9605 55.3663 36.9605 54.9613C36.9605 54.5562 36.8998 54.1646 36.7882 53.7954ZM35.2918 51.6945C34.6259 51.2103 33.8077 50.9237 32.9232 50.9237C32.0388 50.9237 31.2206 51.2103 30.5547 51.6945L26.7474 50.4556C26.4385 50.3552 26.1125 50.3416 25.8011 50.4039L24.8499 49.4527C25.8595 48.6327 26.4953 47.4109 26.5552 46.0678C28.5226 46.8656 30.6721 47.3064 32.9232 47.3064C35.1743 47.3064 37.3241 46.8656 39.2915 46.0678C39.3512 47.4078 39.9842 48.6271 40.9899 49.4471L40.0352 50.4018C39.7269 50.3419 39.4049 50.3564 39.0995 50.4556L35.2918 51.6945ZM34.4996 54.9609C34.4996 55.8301 33.7923 56.5373 32.9232 56.5373C32.0539 56.5373 31.3468 55.83 31.3468 54.9609C31.3468 54.0919 32.054 53.3846 32.9232 53.3846C33.7924 53.3846 34.4996 54.0917 34.4996 54.9609ZM29.0579 56.1266L26.7568 56.8754V53.0465L29.0579 53.7953C28.9464 54.1646 28.8857 54.5557 28.8857 54.9609C28.8857 55.3662 28.9464 55.7573 29.0579 56.1266ZM38.0937 66.6799V69.6211C36.5093 71.548 34.7757 73.3728 32.9223 75.0583C26.0608 68.8209 20.9913 60.8564 18.2449 51.9839L22.479 50.5621L24.296 52.3791V57.6862C24.296 58.2835 24.5848 58.8499 25.0683 59.2008C25.5529 59.5527 26.1817 59.6505 26.7471 59.4664L30.5545 58.2276C31.2204 58.7117 32.0388 58.9984 32.9231 58.9984C33.8074 58.9984 34.6259 58.7117 35.2916 58.2276L39.0989 59.4666C39.6642 59.6503 40.2933 59.5529 40.7779 59.201C41.2614 58.8499 41.5501 58.2837 41.5501 57.6863V52.3671L43.3581 50.5591L47.2231 51.857C43.9312 54.8899 41.7761 59.1388 41.4814 63.8843H40.8875C39.3471 63.8843 38.0937 65.1384 38.0937 66.6799ZM64.2615 73.7156C64.2615 74.5994 63.5426 75.3183 62.6587 75.3183H55.9878C55.104 75.3183 54.3851 74.5994 54.3851 73.7156V70.6158H64.2613V73.7156H64.2615ZM78.0921 70.2548C78.0921 70.4384 77.9426 70.5879 77.7591 70.5879H66.7224C66.7654 69.261 65.6808 68.1553 64.3565 68.1548H54.2902C52.9658 68.1527 51.8843 69.2616 51.9243 70.5879H40.8877C40.7041 70.5879 40.5546 70.4384 40.5546 70.2548V66.6799C40.5546 66.4954 40.7041 66.3452 40.8877 66.3452H77.7589C77.9425 66.3452 78.0919 66.4954 78.0919 66.6799V70.2548H78.0921ZM32.9231 65.3789C32.2435 65.3789 31.6926 65.9298 31.6926 66.6094C31.6926 67.2889 32.2435 67.8398 32.9231 67.8398C33.6026 67.8398 34.1535 67.2889 34.1535 66.6094C34.1535 65.9298 33.6028 65.3789 32.9231 65.3789ZM25.7453 25.8541C25.0656 25.8541 24.5149 26.4049 24.5149 27.0846V29.618C24.5149 30.2978 25.0656 30.8485 25.7453 30.8485C26.4251 30.8485 26.9758 30.2978 26.9758 29.618V27.0846C26.9758 26.4049 26.4249 25.8541 25.7453 25.8541ZM32.9231 60.457C32.2435 60.457 31.6926 61.008 31.6926 61.6875C31.6926 62.367 32.2435 62.918 32.9231 62.918C33.6026 62.918 34.1535 62.367 34.1535 61.6875C34.1535 61.008 33.6028 60.457 32.9231 60.457ZM36.1467 36.371C35.7546 35.8162 34.9868 35.6841 34.4318 36.0765C34.1604 36.2682 33.5854 36.5851 32.8297 36.5585C32.1564 36.5344 31.6545 36.2467 31.4153 36.0772C30.8606 35.6841 30.0928 35.8155 29.7001 36.37C29.3073 36.9246 29.4384 37.6925 29.9929 38.0853C30.5338 38.4686 31.7034 39.021 32.9221 39.021C34.3153 39.021 35.3492 38.4417 35.8521 38.086C36.4073 37.6939 36.5392 36.9259 36.1467 36.371Z" fill="black"/>
</svg>
